<mxfile host="Electron" agent="Mozilla/5.0 (Windows NT 10.0; Win64; x64) AppleWebKit/537.36 (KHTML, like Gecko) draw.io/24.7.17 Chrome/128.0.6613.36 Electron/32.0.1 Safari/537.36" version="24.7.17">
  <diagram name="Pagina-1" id="FRXT_IHbycRmo5weZShG">
    <mxGraphModel dx="2590" dy="1515" grid="1" gridSize="10" guides="1" tooltips="1" connect="1" arrows="1" fold="1" page="1" pageScale="1" pageWidth="827" pageHeight="1169" math="0" shadow="0">
      <root>
        <mxCell id="0" />
        <mxCell id="1" parent="0" />
        <mxCell id="eiNH-cdMeC_MbH61KrFe-1" value="" style="shape=image;verticalLabelPosition=bottom;labelBackgroundColor=default;verticalAlign=top;aspect=fixed;imageAspect=0;image=data:image/png,iVBORw0KGgoAAAANSUhEUgAABasAAAOlCAYAAABjXbu2AAAAAXNSR0IArs4c6QAAAARnQU1BAACxjwv8YQUAAAAJcEhZcwAADsMAAA7DAcdvqGQAAOm/SURBVHhe7N0JfBT13cfxb+6DHFzhFpAIcl+CIpegAopCRUGleOLRKvUpVdRW+1hr642W1iJPpeBR8QKFimIBrcglAsqNCAQ5whkMkJOcPPufnQ2bZDfZJBs2gc/b15iZ2dnZ2dnZIfnub38T1Kp161PyQUREhKKjohQWHq7QkBCFOAZfFRQUKN8x5OXmKis7Wzk5OfYt/hUTE2Nto9lWAKgMc77KdpynMjIzlZeXZ8+tRqdO6VRQkIIcP+X4aZ2QHeNBZtyeF+S+nBkHAAAAAAA4C5UZVpuwpE6dOoqNiVFoaKg9t+ry8/OVkZFhhUFWGFNFZhvj4+IqFKADQHmysrJ07PhxFRYW2nP8x5z5qhI8V/X+AAAAAAAANY3XsNoEvwkNGyosLMye4395+flKOXJEBVUIgkxIHecYAKA6mA/XjqSkWBXX/uDvkJnQGgAAAAAAnC2C7Z/FmIC6UUJCtQbVRlhoqBo3bmz9rIz4+HiCagDVynyrpHGjRn755kZ1BMvW+vzwDRUAAAAAAIBAKxVWBwcFWRXV/mz7URYTADV0PJ5pOVIRkZGRiouNtacAoPpY56kGDeypKqimUJmoGgAAAAAAnA1KhdUNGjY8472fTTDeoH59e6p8ZvsqsjwAVFV4eLjqxsfbUxXjCpMr+qGcr1zrJbQGAAAAAAC1WbGwOioqSpEREfbUmWUe2wy+MH2qg4M9djABgGoTGxtb8W+dmGrqM9Smw0TWBNYAAAAAAKC2Kkp8TfuPylYN+osvj29C6jp16thTAHBmxcTE2GM+MCG149xaXRXVnliBNT2sAQAAAABALRTUqnVrK9UwVc1+6claRSlHj+rkyZP2VGkmKKpXt649VXERkVE6r1UrNW7STBERkda83JwcHTl8UHt3/+h47GxrHgB4UlBQoAMHD9pTAAAAAAAA8JeisLp+vXo1omI5IyNDx44ft6dKa5SQoIgKtCoxFYamqjEkOESduvdUh85dldCwkTXPVX2Ym5ejU4WnlJ6eru83b9Cm9d+psLCg6L4A4O7wkSPKzc21pzwzZ5dAnT04dwEAAAAAgNoopG7duk+akbi4uDN+YUVvMjMz7bHSHNvrcwjjCmxMBfWgocPV46KLFep4jnv37NYPWzdry6Z12rljm+rUiVNYWJjVYqRN2wtVv0FDJTuWKSCwBuCBCarz8vLsKc+qctZISEhQ69atrfGsrCzrZ0VwzgIAAAAAALVRUWV1s6ZNa0RYXd5X7M9r0cIeK5srZDbP6fKh16hd+45KSTmsdWtWacf2bWYBa7mY2Dhd87PRioqOLgqfYmLi9GPSdn2x8BNrewisAbg7ceKE0tLT7anSqnrOGD16tEbfcIPmfPih5syZY8+tOM5dAAAAAAD4R6NGjfTgb35TVFxWlh9//FF/mTJFR44csefUHr999FE99/zz9lTZHn74YTWoX1+//d3v7DlVVxRWt2jevEaEGiZcSd6/354qzdew2qVrj14aMPhKHT1yWF8sWmD9NDl1WFioOnfrqdZtLlB83XoqLCy07+EMzOPi62rl0v9q47q19lzfPfvss6UO3N27d+t3fnzhAHjWuXNnXXvttZri+EehZP/7yMhITZw4UZ988ok2b95sz624tLQ0nXAM3lS1BYjfwmrHQFQNAAAAAEDVffzvf2vySy+V2xbUCA8P18OTJmnEyJH2nNpj+fLl+uyzz/T000/bczx75JFHdNutt+qmm27Slq1b7blVF2z/rFRQ3aFDB3vMs/Ju98Sfgbm5mGLHLt2U5ziIvv3mayuoDg4OcTyGrJC674DBiqtb1wqnzeO6BtMOJCszw7pvpGMdlWHC6bFjxxYNJrx+7LHH7FsDZ9CgQXr33Xetn8DZaOjQoerWrZseffRRK5x2MeNmnrnNLFOdakpATFANAAAAAIB/dO3aVUuXLtWqVavKHcxyXbp0se9Zu9x888269ppr9Mcnrc7RHpmgetzPf64b/RxUG0VhdUVdfvnleuKJJ3Trrbfac4oz883tAwYMsOeceee1bK0GDRO0P3mvdiXtsILoU6ecFdRNmplKcikkJNTqV20qut0VFhQoNjZO57Uqv7TfF5s2bVKTJk3sKQDV5ZVXXtGGDRvUvn37osDaFVSbeeY2swwAAAAAAACKS05O1pgbb7QK/TwF1q6gevSYMdrq56DaqHRYbdpmmIB3+PDhpQJrM23mm9vd22ucaY2bNlNwULAO7t/v2A5n72lXKL1vz26t/eZrbfh2tQ4eSFZwSLBVYW1CaiPY6t8dpMZNmlnT/uB+4UhXhbNrcK+6NpXYrupn92XMfHeu5VzD3/72N/sWJzNt1vvPf/6z6PZf/OIX1m3mp5nn4r4e08YEqK1M7/mXXnqpKLD+7W9/aw2uoNrcVt7FEQEAAAAAAM5V3gJr96B6x44d9lz/qnRYvWTJEr322mvWuAmmTYm4YX6aacPcvmLFCms8ECIiImQqqdPTTyg0NNSqog5x/DRB9J4fk/TNyqX6bs0qbfh2jSLCIxVdp451ocWoqChlmWA5SAqPON1GoLJM6GxK/zdu3Fg0bcLijz/+uKhNiLn9V7/6lXW7yy233FJ0u9mPI0eOLGrfYZY10//4xz+KljFKBtZmvV988YV1+//8z/9Yyxuu+xkmzDbrd60nvYwLxwG1gSuw/uGHH3ThhRdaQ00Nqs03UN57991ig+lXbZifJW8zywMAAAAAAFQnV2A9ZMgQ/eGJJzRp0iTd5Jg2rT+qK6g2Kh1WGyawnjlzpjX+s5/9zApRzE/DzDe3B1JQULBy8/LUu08/jfn5Hbrxljt107g7NerGcRp6zc/U8vxEazlTWf3VFwu1Z1eSkvfu0eqvl2vLpvUKCw2zbq8M06PaVansCp3NuDFs2DCrLYhr2jDT7dq1s6ec3n77bXtM+vvf/66UlBT17dvXmu7evbsVMLvv448++kgJCQlFgbZheme7P44nderU0U8//WRPSc8884w9BgAAAAAAAJRv948/VnhAzWYCaxNOmyzzF/feq5tuvtkqDKxOVQqrjcWLF+utt96yxl0XVDTTZn6g5ZzM1qnCU86+1BERVqV1uGOIiYlVy1ZtdPmQq9X8vJbWsj98v1mLFvxb/5k/Vxu+W6OoqGiFhIYoJ+ekdXtFuS6waCqYTRjsXjVtpk3FsyvMNoOnpuslw37TRiQ2NtYaN+vYvHmzNe5iljfLNG3a1J4jn6qkTVBuqrRLVmUDtZXpQ//QQw9ZFdXmJGoGc2FFM8/cVpOY8+VTf/pTseGrpUut28zPmx3nEffhqaeesm4DAAAAAKAmaX3++RUeUPPdOGaM1YXixIkTus3LtQv9qcphtfHZZ58VBdbmp5muCQ4fOuD4v7NPtelFbXpSu4aszAyFh4crsV17a1lz8UXDsbQVbjdr3tzqt334oFlH5ZkA2VRA9+vXz57j5N52wzWYNh3lqY4WHaaS2jy+YYJz9/7ZQG3jCqpNOL1t2zY999xz1mDGa2JgbT7YMhckcB/MtygAAAAAAAACyfSoNh0jbhg9WteNGmW1BHlp8mT71urhl7DaMAH1k08+WWOCasNcRNGEu8HBxZ+mmQ4Lj1BoaJiiIqOseSbQdgXW57e5QM1atNRPR1O0b+9ua15VmBYepuLZFQKb8ebNm1vjZXFv52GYFh9paWnWuFlH586drXEXs7ypuD548KA9p2JMWG5CdE9V3kBt8cADDxQF1c8//7xOnjxpDWbcFVibZaqT8zKugVdTtgMAAAAAANQuJqgeM2aMdTHFXbt2FfWwNi2KqzOw9ltYbVR3z5KKOnkyW1s3bVB0nRirStoE0iEhIcrMzNCSL/6j+XM/0HdrvjldVe24vWGjxrrokksVFh5u3de0EvGH9evXWyGwCZTNhRZNT2v31iBm3FXd7HL99dfbYyoKuk3wbZj1mWpt90DbLG+qNMvqFe66zb1VyLPPPmuPOZkgHKitFi1aZF1M0RVUu7gCa3ObWQYAAAAAAACluYJqkzWaoNrlTATWRWG1aY1RE/hrO0zwbGzZ+J127fhBsbHxOlVYaFVV55w8qT27dmrfnh+VcuRQ0bJtL+ygy4cOV8OExtr+/VbHfddZ8123V4XrAommdN602vj444+tsNnVs9pcMNH8dLd9+/ai203Qfffdd9u3ONdnqqB/8YtfFC1jQubf/e539hLemUDb9Kh2PZ77xSDNNrk/DlDbmF7upu2He1DtYuaZ20r2e/c7P5wz/KKmbAcAAAAAALVYaGioNm/ZYk/5ZtPmzdb9apuJEycWBdX79u2z555W3YF1UKvWra00o3GjRlYP50DLzc3V4SNH7KnSzmvRwh4rnwmZTdV0RHikBg25Sudf0E7ZWZnKycnRrp3blXrUPE6Q4uvVV+MmTdWseQuFR0Rqxw/fa+kXC62LK7rWcSaZCmsTJpestAZQM5h2PCfsljzVwbT8McPx48d14EDV+uYDAAAAAICqe/DBB9W6VSs1atTInuPdkSNHtGfPHr308sv2nNrjm1WrrDB679699hzPTEb74Ycf6j8LF+qJJ56w51ZdUVhdv149q99xoJnq4NRjx+yp0ioSVhuusDk4OERduvdUh85dFRdf1xnM20WH5nazXMrRI/p+80ZtWf+dCgoLAhJUG4TVQM3mU1jtOH84TiD2xJkVqHMXAAAAAABns169evlULV2Qn681a9faU6iIorA6KipKDRs0sGYG0tGfflJ2tvc+0RUNq0uKjIzSea3PV6PGTRUREWHNMxXUhw8d0L49e/zWo7oqCKuBmq26K6sBAAAAAADORUVhtanCa9qkiXUBwkAx/aoPHDxoT3lW1bAaAKrKBNUmsC5PoCqcqawGAAAAAAC1UdEFFk24kZaebk8FRnmViubiiAAQaL4GwYEKjAmqAQAAAABAbVQs/c3IyLAuPhgIpvWH6VddFsJqADVBaAW/gWK3x692Z+pxAAAAAAAAqkOp9Nf0jM7Pz7enzgzT/uOn1FR7yrtAtigBAJeKfnBm6pxNkGy+wVIdXOulnhoAAAAAANRmpRKXwsJCK7A2P88E8zgpR4/6FOKEh4XZYwAQOOHh4faY70yQXB3tOaxzJ20/AAAAAADAWcBjeWBeXp51oUPTmqM6ZWVlWY9jHs8XUVFR9hgABI6prI6IiLCnKsaEy/6osrbub6+DqBoAAAAAAJwNvH6X3QQhpsLaVD37Gib7yrQZOZKSYrX+8DWwqUo4BAD+Fl3JD89MdbUVLlexGtq1Di6mCAAAAAAAzhZBrVq39iktNkGxCWfCwsOti4tVpH+06Umd7xjycnOVlZ1dqYs41o2PV2xsrD0FAIFlWhgdOnzYOr9VlTkJB5kP7oKCnBdJdIybENr6MM8E0va8U65xAAAAAACAs5DPYXUghYaGqmmTJvYUANQMmZmZSj12zJ4CAAAAAABAVXhtA1JTmOrChg0a2FMAUHPUqVNH0dHR9hQAAAAAAACqosaH1QkNGyosLMyeAoCapUH9+vTTBwAAAAAA8IMaHVY3aNCAEAhAjWe+/RHJuQoAAAAAAKBKamRYHRwcrMaNGlkXdASAms6csxISEhTHRWABAAAAAAAqrcaF1XWio62gOjw83J4DALVDfHy8GiUkWBeFBQAAAAAAQMUEtWrd+pQ9HjCmJ7Vp9xEbE0PIA+CskJaeruzsbOXm5tpzAAAAAAAAUJaAhNVRUVFWQB0WGmqF1CEhIfYtAHB2KSwsVE5OjvLy8pTrGEyADQAAAAAAgNKCLmzf/lREeLgVHpvWGwTHAAAAAAAAAIDqUFBQYH0T3RT15Tl+Zp88ad8iBfXv3z/gbUAAAAAAAAAAAOce8430n1JTrRC7xl1gEQAAAAAAAABwbjBtops0aaI6deoQVgMAAAAAAAAAAic4KEj169UjrAYAAAAAAAAABB5hNQAAAAAAAAAg4AirAQAAAAAAAAABR1gNAAAAAAAAAAi4oP79+5+yx4EzqqCgQHl5ecrPz1dhYaE1bQYAAAAAAADAXUhIiIKDg62foaGhCgsLs8ZrslOnTikoKMieKp9r+Yre72xCWI0zyoTTJ0+eVG5urvXGAwAAAAAAACrDBLrh4eGKjIy0wuuaxB+B87kYWtMGBGeEqZg+ceKENeTk5BBUAwAAAAAAoEpMvmRyJpM3paWl1Yhv7LsyL3+EzGYd51qGRliNamXae2RkZOjYsWNWVTUAAAAAAADgb+Zb/CZ/MjmUyaMCxd+V0FRWA35iTgzmUy3T9gMAAAAAAACobiaHSk9PD2hgXZ3O9kprwmpUC/O1i+PHj1sXTwQAAAAAAADOFPPtftMa5Ey0BTnT4fHZ3hqEsBp+Z04IJqj25RMs8wYzDfCjoqJUp04dxcbGFg3R0dGKiIiwrvQaKOdaXyAAAAAAAHB2O1eyjjNRSGn25bnWpqO6BfXv3580Dn5j3qTmRFDeJ1chISFWGG2u2OrLm9qcWEzD/OzsbHuO/3GCAQAAAAAA55qzPQ8JDQ1VXFxcQIsh4TvCaviV+YpFWRdSNCc/E1JHRkZW6kRoQmvTKJ/2IgAAAAAAAP5xtgfW5lv98fHx9lTVVXR/mSysfYeO6tKzl9JSf9KXn3+uEyfSFB0VYXUmaNSkmRokNNAP329VZmamfa9zE2E1/MY0sDdBsjfmTWxODOYTraowJwTzxvXXhRupqAYAAAAAADi7xcTEWMWTZ1J0nTq67LLBuvzyK9Ti/NZ675339PeXX1RmZpby8vIVGhaqhAaNFRocpHsm3K8Bgwfp8/8s0BefLz5nQ+uQli1bPmmPA5VmAt+0tDR7qjTT9sMfQbVhgmXTPsTIzc2tUtBMUA0AAAAAAHD2M50AzDXTqjsHcq2/TeIF+t//fVKDL79S8XXr6i8vTdFLzz8nnQrW8fQ0xYYHqW5UpHJPhepQyiHlZGdpzLjbNOzKK3Tppf20efMmHTuWWu72nm3ZFmE1/CIry3wi5L39R13Hm9IE1v5kvsJh3pCVbQlCUA0AAAAAAFDcmcxLTB9p81jmMc8UVwFkZZS7b8xtjmV69OypRx75nRo0TFB2TrY+/vhTzXxtuuLjGqheZKgGtorX3cP6acxlvdTlvARlZKTrmw2bdN55rXVB23Zq2LCBel7US9t/2KaUlBR75Z659t/ZknERVqPKXH2kvfFXRbUnJrA21dWVPamdLW9kAAAAAAAAfziT4edFF12kpk2b6sCBA/ac6mUyrMpeR83w5X6tW5+vPzz5Z6twMycvV0d/Oqa3Xn9T+/bsVpgKddeAC/XorT9T9y5d1Oq889W9XaIu75Ko9Zs3679rNuln1/1MERGRCgsLVZvE1trsmJ+elm6v3bvqfL3MuseMGWMNCQkJ2rp1q32L//k9rDYb37p1a+tCe7WFa5uPHz9uz6m5GjdurB49elhv5v79++v8889XnTp1lJqaWlRhPG7cOOu2tWvXWtPVLTs722t1s+tiimUxgfOAAQM0duxYa7jpppvUu3dvNW/e3DqOyjqWzGtnPhGraP9qV7hdnW9kAAAAAACA2upMZCa33nqr2rRpoxUrVthzzozKVFf7EuBHONb7p6ef1nnntdSxE8cdywdr/Xff6eOPPlR6Rpa6N47S/SMGKqZpcwVHxepUaB2ddKw3vk4dKS9XMz5dbIXdl/S5VMePHVN4RIhat7lAX6/8WoUFBfajlFbdr1W7du00cuRIa7+1aNFCO3furLYcNdj+6Rdmx3Tu3FmtWrWyDrTawmyr2Waz7TWVqUy+/vrrNWnSJP3sZz9T3759deGFF6pPnz5WuPvEE09o6NChVquNli1bntH9n5OTY48VZ44H0wuoLGb7X3nlFf3yl7+0gvfDhw8rKSnJuhLq8OHD9dxzz+mBBx6wAnlvzHM2oXhFnYmTLlBrjf2jXn99qh682J6uCS5+UFMDtU3WY7+uP461pwEAAAAAVWIqqtu3b28NZvxM8ZZjlceXHGn4tSPVpVMnZWVlKjgoWKcKCq2K6iOHDilCBbqiW6LOa3meIqPqKDg8SuF1olQ/oYHCoqPVqe2FahIXo4X/+Y/S0k5YF19MT8vQhR26qP/AwfYjBIbJ6dxVZ6YW1L9/f781henSpYvq169vXWhv48aNKigj8a9JTNjZtWtXxcXFWRXKmzZtsm+pGcz23XPPPUpMTLSmN2zYoNWrV1vbaj7R6NChgxVem+3ftWuXVY4fGxurhx9+2Fq+OpnX+NixY/ZUcSZgLiusNp/ImEpqE1B/+OGH+vrrr4tVaJsT1YgRIzR48GAdcrypn3rqKa+PZbbD7A9f3ywePw2bNEOLO3yvIXdNtmecNmnGYg1raU84ZGx4VaMmzXVOjJqsufd3U4xzqrSMDXp11CTZS5dSfN0Z2vDqKLlW7c2oyXN1f7fTj7h34RB52GwvRmny3Nukt8p7nLH64+tD5fa0bXu16M4/6F176uIHp+q+LqU/LMjaNE0TXl5tTxkl1pe1SdMmvCz3JYoxYWn7bbrzD65H8mzsH1/X0IZmXcvVf+p9Kr0pWdo0bYKKbcq5xOzHoY69vndRufuyGOt+Df2z70zQe18XHV10pyqyCaVY60lUUiBeT389BwAAAACoBc5EG5C77rrL6gxgLF++XDNmzLDGz4R69epV+Npq5e2TuvXq69mXpqhdqxbKys5xDCcV7Fj8xeee0cx/zlCrhvG69+p+atq0ibq1b6cWzc/T8YyTSjpw1LHuPMU7NueBya/qQI4058O5atCwgQ4fSVZkdD0dOHhYLz//p4B2shg2bJhVHLt9+3Z98cUX9lz/81tldW0Nqg2zrWabzbab52CeS01iAlsTVP/44496+eWX9fbbb1sHxtGjR62ePuYAmTx5shVUm4PGBNVnirdPo8wbuKz2H6bNhwmqDx48aFWFL1u2rFQrEXPba6+9pn/9619q0qSJHnroIa+9r80JpioN8k1gvNg9jXZjhclaqCFDhjiHhXsV0+1+zZ08yrnA3Eka5bqt2LBQex03711RTlBdf4Nete/z6gap2/1z5Vq1J86gOlULXY/j2J6WwxZrxiR7gbKYYH3x/XLLucu1d9GduvNO9+F0UF3EBM/FlrnTY1DdcNM0+/Zp2qQuum/qg/JUJGsCaCtgLddYtTc57HK30NuEsm7bMW2T4/x0X82uiLWebzVt4FjHDjIXQFXL9o69de6ozn0KAAAAAGc7E8qabKe6xMTEWN+2N61lzWDGzbwzpTLV1eWF9+0uvFBNmjZR1sk868KRYeHhyszK1M4fdljZY2jwKaVn5WjpqvX6Yd0aBeWf1P7vt2juB7P1xdK1yj6Zq/jYOsrPL3Dsk5POcDw4VNlZ2VZHiA4dO9qPFBgLFy7UtGnTqjWoNvwSVtfmoNqlpgbWzZo1U79+/ZScnGwFtybAdWcql02QbZYzlcnVeSLxxFuvahMce3sTm5Yd5tOzzMxMPf/889Y+d+nWrZvVEsT9060FCxZo0aJF1vM0rUG8iYiIsMfK59o2E/wuXly8arqU7xcWr7aefJcW7nWcWBP7qYxMWZNmDFPLjA36xFvF86jJ6tcyQxveOh1mz530ljZkxKjbtd6S50m6tluM9i68S0WrtbenZb/JZWzPJM1wPM/FZVWAV6OLH+yvllmb9GZRgL1aL7+5SVnRXXSNW55oqrRff/11+ZRTG2Pbq6X2alsZla6rX35Tm6ys9lwMLk2Yn6WkN5c79lJLBWwXrH5ZE+6kIhkAAAAAapPywtmqGDRokFWQ+NVXX1kFjGbcfLP+TPGWZ3njS97Wtl17ZaWnq+BUoeMOQQoNClZmRoYOHT6sHMfj1YsM1fG0bMXENlaDug0dt2WqUcPG6ta5s/Jz8hQbEqRmDRsqOiZGUdFRjscsVJgp2gwOduyfMHXt2t1+JM/OdCZYXaocVp8NQbVLTQysBw4caP38z3/+4/GNZEJqE+6awVxYsTpPJJ54eyOU9VUKE77Hx8fr/ffft1qAuGvUqJH1VYySZs2aZbUAufbaa61PpzwxF2qsqMR6MdJeZ9W0CXw9MVXrJSUdy5Bi6snZmMWTSepgKn7LqKoe1S9RMRlJWlFsgblakeRYd8sOjjV4MKmDFc5+X2KTJn9vpefq5y2tHtVE9a0WI0M05NUNjjEfXNxUDZWlE0n2tBeJ8dHS0YPe23noYvVPjFZW0vLiy6xerqQSIbK1LrsyepGX1+O0i/Vg/5bK2vRp6UrvYlbr4FF79Bzj/JAgSctXv6tt5gONczKwBwAAAAAEgikqNC1eXe1rr7nmGt1yyy361a9+pauvvtrKlD7//HOriNC46qqrrNvMMmZZcx9zX7OOihQo+qKiwa4veVvr88/XyeyTys7KdNzB2TIkOytLaWnpys3LUcfmTXRH/666d0gPnd/6PAXlBCsyOlojB12qiWOv0oWd2ykmNEQNGja0Wv1agXdouIKCQ5Sbm6uWLVvZj+TZmc4Eq0uVwmpzQUIT6podtmfPHqv9RN26dcsdAsXTtpQczHMwzyUvL896boG+6OIFF1xgbcuOHTvsOcWZPs3mTe1pOBO8fTjhLVA2LrroIqsxu6crvZrtfvbZZ0ut1xxja9assV4fV+/ukiraa8iYfNcQjz2qq2rU5H4eQ+XTRqlfYozjBTxUKsyeeyjV8f/6auIheJ5kEvCMYyqVHycdU4ZiVM9bem61Kim7R7WzqrkaLl53cX8lWnl2yTjbDpEbNi1qBfLuH+70va+ytd4sJS33HpM7XaymDaWsEqm7q4rbNUwt8cSL2kjYF9YrWtZj65KL9eBUt2XMULIFhbUes39PLzv1xRetn1Ylecuh9n3/WNSuo+Q2en5sb4p/SPCulVb39/L6mjYtbo/jtg1FPGy/NdjPs/i2ljiO7H14epc4H8+5e8u4Xxms16fofm7ba10Y0vM+tR7L7MMSr6lzu0o8rwrtawAAAABASZdeeqn+/Oc/65FHHrGuxTZ69GhdccUVVi5kvnW/du1a/fTTT1ab22+//daaZ24zy5hlzX3Mfc06zLr8qaLFtr6E23Vj42Ty4lMhYY71F+qU47+c3BxlnXS2HMnOKVCDBg3VsGULZaX+pMwTx5R2+IgUH6uQJs2kHMfyOSetCuoI0+o2OMgUVVshtHl8k1uWp6IhvK/MNowZM0Z/+MMfrNemOlU6rO7UqZNjBzewxk3LB1OFbFo4+DIEiqdt8TSY5+Kq0jXP0TzXQDEXKTTtMkpeddPFVBubFhmehjPB23aVFRybfZqSkuLso1uC+RTN9LD21O/afIhgmA8RAssOmvd+f7oVRzHOVh0ZGz7xcvtpGcc8lC1bwXMZPATcmntIJuL2q8R4RTv+M/2eiwK8kgGsnEHw6VDQDJ4CR88V2kknSh8Dvhp7TRdF711e7oX2xv7RXHRxr5a7LWiCzvu6HNUiV29rZ2PrUoG1GvbX1NulN13L3blIe6NL9Nq2gk/HYxx175XtWM7sEw+BZ+Lt1gqt5SY8/LD106oiL+q17ewJboLVYtto+nxXpEK8ZJj/7jbtdbyeif1LbJG1/e79xB2D4/Qx1GMvFnM8nN7+O82GO57n1KmObY1fXnT/RXvNch4C7xJaDn1dt+vNCt7PeUy232Zvg9kvWS011LWv3/2DvS7HeIl9ajGvn9tr6nwKUx3P4T7FL3et036dSx3vAAAAAABfLVmyRC+88IKVaxmmN/Vbb71ltYR92PH38P/93/9Z841XX33VmmduM9cuO3nypDXf3Nesw6zLn6qjsjoquo6VJ+Y7Vl1gQuvCQkVGRljBc1BwmDbvP6Lc/GypMF+RcXWVkfWTwuvFKywkRCEns3R0/16l5p3SZYMHW9sX5PgvOCTYcd8gFeiU4uLi7Ufyrrqqq9u1a6eLL77Y6it+ySWXWMW11aXSYbXpnex6YU3l7/Hjx30eAsXTtngbzHMyzCctJftEn0mmorgiFw40Fc1Dhw49Y31+vL0JyqqsNl/dcO3fklxfD/EUdrvCbX9/9aOiJs0wFyjcq4XeKrLtVh0ryipjLlcZVdJlqO+pHNtHq1+eoDvvnHA6/LVDv6Jh2iZllQpgV+vlCW7LOAZn4FiBCxpGx5fRTsUb+8KKnppVFwvOXaGmW1h58YPqb+67yG3e6pf15qYsRXe5pnhQGn1Uyye4XbzRcY8/mP3g1mvbGZovKlERXno5p2gp6c1yA3bD2RJl2+ltNPv6D+7bUraL+ycq2moBYs9wrMkUV0cn9i8WoLu2v9gFMR2v/TTT6NuDrE1u2//up1Y/8GjHflrk9vzf/dTx3H3pkV3icX29X9amaW79rx37Zbn1xFQyh/csS5vePL0fnY8Z7XipF7mt81196mx0Xm7gDgAAAADw7ocfftCTTz6pAwcOWNddMxdSNMWIppravQDSjJt5prjRZFqmiNHcx9zXrCPQfAm3MzPTdDIrWwXZGcrLL1BuQYHiYmNVr2F9RUREa9dPGdq+96DyHbfn5gcrNryRosOilX3ihJRxXEmHj6jdgCvUtEkjBQUHKzQkWMEhESZkk0KDlZ5VflPX6qqsNlmp6/UyWekJs83VpNJhtWk/Yfo7mw01TdBNoLthwwafhkDxtC2ehv3791thqXlumzdvtp5roJivQ5ivQfhS6m+0bNnS6r/cvXvZTdf9xVtYXdbXKdLT04uq8iuiYUNTwqtqfUOUzXmRwmHmooivul3gsASrVYfXqmtfZchT0XV5Ug9VJSAvh7lInscAtjjTysOqVu1fuqrYo6wTpdualKesCysWVdOailuTXRev1HWGuJv0aYn7rnb2JFFT940uFhbbVh+Us3uJWbCM0NxDT26jdDsUz6yqc1O17LEvRsm2HY6h2IcIY3VNl9J9wq1WIMVCXe/b79wfJZVsu2K3cqnMa+hQ6nGL7VtvPLR+STphBc7xvnzqUSzAd7Afs2SbGAAAAACAf5gQ+qmnnrJyRFOh+7//+79FGY870/bVhNMtWrSw8rk//elP1n2rQ3VUIKfZeVVeTp4KThUozzFERMeoceMmCg0JUdapYL27coOUnam03clK/W6bfvp+l3LTftKxo4eV27qrBl51rYJCpNCwUCuwDgoN0akQ0w4kVKnHA1cAbK45N3PmTG3atEnTp0+3PlSoLpUOqw2TqpuNNKl9+/btPR5otY15Dqay1zDPzTzHQNq+fbv18/LLL7d+lscVUrvuV928tftw/3SspF27dlmfprVp08ae4xvXBS9//PFH6+cZNWqy5i4eppYZG/RqWb2fHcv1s7Jq36LqGE/l04n1FGOPelS/iUrVT1sXUDwDfAoT7aC1WMW05yDRqh6uMN8vrPjyhEXaq5Ya6lbmbT2mafFQMuz12PaiHNZFKCui/AtWuliV7ov2Ojb1Pg9h9Lv6g1s1uzW4V4BbYb55mvZ9iz3HaHVxfdpQ4e0HAAAAAKDicnJy9Je//MUqCjXfqu/Ro4d9y2kmkzNtJkweN2XKlKJWINWhMtc9K8+hQ4cUU6eOTqlQeUHByi88pYOHjygr+6SCHY8XGxWpD9b+oGnzl+j8Ds3UfEgXNel2nnKy0rUzv44SOl2ihnVjpchIBTvuHxIaKtO3+lRQkEIiwrV7z277kTyzWodUUxsQw1S4mzYuSUnVW+xVpbDacA+sTchbmwPrmhZUGytXrrRaZphG8q6w1puuXbuqX79+1pvZ08ULq4O3N0F+fr49Vpp5TsYNN9xg/fTFhRdeaD2/LVu2KC0tzZ5bnLfWIlU2aYYW399NMXsXasioSaX7RbuzguayLqzoMlfO6yiWDp5HNTGxc6o8FUknHcswCXfpthnW41auGrvaeQ247X7XRw8Wq/4tl88XVjRc7RxOX1jQCtKzNmlaybDXGtzaoJTDqpC2n1u1KWrFYvdQ9nThQw/GmnJpL8/R6uXsam9R3dsPAAAAAIAbV2tXV2sPM20KGo2dO3daP89E+9fqCHXXr/vOyuTqNmigIIVp075kzfjgXW1Yv06RjudkLrYYHBKpaQtXaOGyr3Tw4F7t+HGn8rMytOTYQb26YbWy8k8pNipG+acKdcqxiaeCQlTgWFt2Tq42rltnP9LZrcphteEKrI3aGljXxKDaMMHsO++8Y1Uq33LLLbrssstKffpj2rD07t1bY8eOtZYzy5+p7TeP7Ynpte2tT873339vVX737NlTo0YVj2o/++wz62se7p+e1atXT7/+9a+t8X//+9/WT0/MY/rfKE22SqUXaoi3HtVuKtICZPL3e6WYRPUrtgvKvnjj3BVJylBLdZhkz7BZj5uRpBXV2AXEYlXslhcUX6z+ie79lj33SnaGzmaxsuujS/L1woouq19+U5uyotXldmdlstXewtf+xp56Ftv7wFkhnSSrW4enJsuVfH6e2T2wS7Yp8cjZ2qNkCxCX4n2hvW+/FXgDAAAAAOAnJkM6//zzrcxn37591oX6nnvuOesCisOHD7cysGPHjlnfxC/rWmj+4C3PqoofftimlCNHdPBUoSbOm6GHpj6nt179P2dGFxSsoJAw5efnKCqunnamZ2vfwX3SqRztKsjXB5nH9Y8tX+r2D/+hhbuSFBoWqfCwMOU4bouIitaPP+7S95s22o8UOI0bN67W6m3Db698bQ6sa2pQ7WK+IjFjxgyrD/S1116rP/7xj7r77rut8fvuu8/q+3PjjTdab/Y33njDCoPPlLI+7Sqrunrq1KlWL3Cz3RMmTLAa5xvmKxNbt24t6nndrVs360qwJrA2QbXrGCvJBOPmKyV+N6qfEmMytOETX+LnSbIyY2/lzaZCe/FizXAFzZM/0YaMGHW7bXJRdfWoybeVuHijs0/2Yted5k7SCtMPetgMxy02x3qtPtpvuaq+R2nyXMd95p5ery8ufnCqXn99alEF8sUP/rFo3HLxg5pq2kgUC4rHOo7H4kHn2D/epy7RWdrk1hTaCkiju+j2ohVerAdvd17Yr9h1CctVRo9or1wX4LN7bVsXBTQXgSxRpex4fn8s1R+6eAuR0vvAse43Hc/NXNSx2H5w7Jf7fH9+zv7UxYPxsY73ufu01WtbR1Vey+uLH+xf9gcKxXpp2/umZG/ssX9UZbqi+J1jO0z7Ep8v1unG0z4FAAAAAASOCapNSGyuz/boo4/ql7/8pZUrmaLMMWPG6MUXX7TyILNMRVvHVlRFq7dNQOutKNMlIyNDH3++UI+sXqTPt61V2obvVZiVrcLCU8rNPamQ0BCrvcf+k7l6PS9CzxRG6ffH8zT+eI4ONG6u5k0a63hUqJ7Z8LkeXPJvbU89ptDgMKsdyNJF/7HWHyhmf5nXbNKkSXr44YerJex38evHFK7A2rx4ZfUsrmnM9pqhJgbVLqYSefLkyVaDefPGNW0xTJW1efNmZWVZrTXMJ1FnMqg2zAnF26dd7tXRJR05ckSPP/641b+6f//+1nMbP3681Zv7oosuslqEPPbYY/rtb3+rOnXqWIHVe++9Z9+7NBOMV+SYK+8EU1yMut2/2AqaSw5zJ7vFwXbfaN8vcjhXk0a9qg3qpvvt9d3fLVULh3i/eKMx+a4hWri3pYa5tmNYfW14tYw+2pXWUF3uc+t3fF8XHV10p+4smb6aoNa1jGMY2tC0nyjRTsO+OKNjhfZy96nL0UWl11Wesi6sWBYroDabagJg08vatMNoqaFu2/36ffHaVrJce+8iTTvR322ZLtKmacW32zw306aj2H4YqoYllyvD6peXO3trW/d1hdTFt+++Lke16M4/2NXq3thV7SUvIljMai230mq7NYppNeLeG9sM7bdZ82ozz/sUAAAAAOCLiuUmvjEXVzSaN29u5VrffPONfve731nD6tWrFR8fX1T82rZtW+tndTA5VnX0rDb7zITK279bq6ZhdXRy3yGdCgrWqcJCZWdlqaAg3wq9oyKjdDw+Wlsb1teqhvWU1bqV4qKjVBgcopj6TVSnQUPNS/5Bd3w6S+sPHdLmdd9p7bIlKusVMY9dnRXP5vVwvTYJCQnV+voE9e/f3+9Hn0nXy6qqrYlq2zabhvOm2thcfbOsUPhMMJ/seNoG80Yx21jWpy3mtiuvvNKqEm/QoIE918mE8uvWrdP777+v5ORke25p5nFOnDhRodevut/EqA4X68Gp9ykxaZom+NoDpArG/vF1DVUlAnUAAAAAAGq56shNfvOb31jXIzt8+LDefPPNUgWXpuvB7bffbrWaWL9+vf7617/at/iX6ZFtCiMrqrx9Yt3u+JlXN0YHm8Qp5b1FVsvagrw8637RMTE6lV+gqPp1FXdNH2V3TFRQnRiFBIcqNDRCys/Vqcho5ZwqUJ2gEB3LSVf91DR1WL5Nx46mWGG1t0ev7pzLvCYPPvigFfSbvO6ll16yMsnqUC1hNc4t5iA1PYU8CQsLsz4Z84X5OkirVq0UGxurAwcOaNu2bcrMzLRv9c5UlpuhIgirayHTEmJoQ22a5vtFEKuCsBoAAAAAAP8wGcxf/vIX6xviCxcu9FpwaIoar7rqKg0ePFgPPfSQPde/TGFlZSurfQqsHbenB51S0g87lZV6QqcKChzzCx3PLUyF+YUKjolUs59fo4jzm+t4vTiFRkQrPCRcwXm5yo2u49g3uToVE62Q48fV+D8rFLP/aJlB9ZliKuNbt26tpKQka6guhNXwi/T0dK89o6Ojo62hOphPqExVdWWCZwJrlIWwGgAAAABwLqqOvMT0PDZdAky/al+Yb9+bb/L7+/pkZjtMkWR1cu2/jKws7dq5W2lpJ6z5IcFBVv/qkLAwxY67WjEXtrFC8/z4eAWHRyrY8V9evXrKDw1R2O7darRwpaKPpVv3LcvZlm9V76U1cc4oK4w2Vc/Z2dn2lP+YHtUmJK/sG/JseiMDAAAAAADUVCZ09jWoNsyy/g6qjcq0/yjJhMNlMXmTWSYmOlodO7ZTq1YtFRUVoYLCfKtCujCvQErLVGZUuAqCpfCCXIWEhzg2LlIhR4+p3pJvdN7sRVZQXd5jnW1BtUFlNfzGW+9qF/PplTkpeLsgY0WYimoTVJf3pi3P2fimBgAAAAAAqIyzOSepbK/qklxZVHn7yX1f5uXlKTU1VceOpSkjPV2xV1yswsEXKTgoWLGFQYo6lqnQw8cVtfeQQk86Q3rzKOdiYkVYDb8xb8LyLnRoguq4uLgyL7pYFvMYrh7V/jp5ns0nYgAAAAAAgHOdyaHMNdXIf2o+2oDAb8wb3gTRZTWpN607zMUYTVW0+VTJV+Z+JqA29zUtRfx5cnGty/XJGAAAAAAAwLnkbM5ETOFkdQXVZEn+R1gNvzInANOovqwTgLnN9B0yVdiu8Nnbm9tUaZv2IuarEiasNqE1AAAAAAAAqsY9i6mOILcmMM+LiurahTYgqBYFBQVW9XRZLUEAAAAAAACA6mC++W+Can9cO608Jvg/E4G46wOGszl8p7Ia1cJ1QggPD7fnAAAAAAAAANXP5FF169Y9I0G1Ud3hsXtIfbZXiRNWo9qYN4/pYR0TE3PWv5EAAAAAAAAQWCZ/MjmUyaMClUV5a3VbFedSrkZYjWoXGRmp+vXrKyIiolresAAAAAAAADh3mbzJ5E4mfzI5VCC5gmUysMohrMYZYd6o5sKL5isY5qsY59InQgAAAAAAAPA/ky+5Wn6Y3Kkm5U3u2+JrcO2+3LkadnOBRQRMTk6OcnNzrYsxFhYWWm9CPnUCAAAAAABASSb8NT2ozU9zrTQTUptq6trAlXeZbTfjriDbfRxOhNUAAAAAAAAAgICjDQgAAAAAAAAAIOAIqwEAAAAAAAAAAUdYDQAAAAAAAAAIOMJqAAAAAAAAAEDAEVYDAAAAAAAAAAKOsBoAAAAAAAAAEHCE1QAAAAAAAACAgCOsBgAAAAAAAAAEHGE1AAAAAAAAACDgCKsBAAAAAAAAAAFHWA0AAAAAAAAACDjCagAAAAAAAABAwBFWAwAAAAAAAAACjrAaAAAAAAAAABBwhNUAAAAAAAAAgIAL6t+//yl7vNKaNWumqKgoe6q47OxsHThwwBr3dTl/OP/88xUUFKSffvpJJ06csOf6h1nvqVOnFBkZqUGDBmnAgAFq37694uLirNvT0tK0bds2LV26VEuWLFFOTo41Hzj7BDmG8k4hviyDc83hw4etc2dhYaGCgyv3uanrvsuWLVPjxo3tuQAAAAAAoLbyS1h93333qU2bNvZUcbt27dK0adOscV+X8wfX4xw7dswa/G3w4MG6/fbblZiYaM/xbMeOHXrjjTes4NoVcgNnk7i4eHXu1l2tW7dRSEiINc+EiHv2/KiN679Tmp8/LMLZoXPnzn4755t/WzZv3mxPAQAAAACA2iqkZcuWT9rjlda7d2/Vq1dPe/futSqZTTicnp6u+Ph4a3zt2rUVWs4fzOMYppLb32H1Pffco4kTJ6p+/frKzc2158oKol2DCevy8/PVqFEjXXHFFdbt69ats34CZ4OIiEgNGXaVrh8zVhdfcqlatWqtZs2bq3nzFkpwHPft2l2oi3pdoujoaO3bu0cFBQX2PQHzIUecrrnmmqJvnphzpqfB9QFIbm6O4xgqtI6jgoJ8x/xQ63Zznp07d65SU1Ot5QAAAAAAQO3l157Vb7/9tlUpZwYz7o2vy9Ukpira+OUvf6nbbrvNClgyMjIUHh5uhSnmq+jug5lnbjPLmGXHjx9vDYZrXUBtFR9fV3eMv0dXX/sz1alTR1u3bNZ/Fnyit2ZO15uvT9f+5L3WcW+O9aFXXas77/6l9aEU4GLOk2FhYdYQGhpaNJhzpxnMuLnN/Dsxf/4njvNphHVOdQ4R2rBhg55+5llrGVegDQAAAAAAaje/tgF55plniqqYTWXzY4895rENSHnL+YN7uxGzbn+48sor9Yc//MGq5vvvf/+r9957T479p9GjR1vBiqkWN7clJCRYP+fMmWO1/xg1apSuvvpqK5x5/PHHrXlV1e2up3RLqz16+4kZ2mDPGznxRQ1o7hjJ3lZsfu3QTXc9dYvaF7U0369lD0/Rx/aUZeREvWg9QSNb295+QjOKnqQP9y9iL6sS+6nbXXrqlvY63VW95GOc28w3Bkz4bCqqbx9/jzp06qzDhw7qv4sXau2ab6xj3qjreE/fe9//KDY21qp6NZWwdevW047t2/TGjH9YIbZrXb4ZqYkvDlDz/cv08BTPr2hxztc3du3D8mlxB0/vJ/+p6PZXlfPxHG8An59/ILRt21YzZ860vp1izp/m/OhifUPF8TM/r0B/fW6S/vXBZ3rm+b+pebMEnUjLcCwfod8//og6JtbX1H9+pF/84hf6/vvvnXf2gfV6nz5ZOFXT6+M8L5d1PvKvon8HPMje9raeqNYTmn2s21OWM3bcAwAAAADOBn6trD6bmeDtjjvusAI5E7Jt375dP/zwg2bMmKFbb71VN954o2655Rar6nrMmDHWvOnTp1vL7Ny5016LrHV4u8hkVZjwZUD9bXr74Yf1cK0Lqs3232CFiw+b7XcMb2+rrwFP3aVu9u1WkDygvra9bS+zLFXtb5mokUU3l3N/dyMHu4XaNhOE39JKe1zrtx8jtpV9e7lMSPOU7ir2gCY0fVETXRtZy7nC5UGXX6lOXbrp8KFDeudfb2j1N19b74uw8HANvmKYbrvjbsXExFghtbmPCSJPnDiuDh07OW4faq3D96DaYWQbNc/OVnbzNkWvd61SK7ff0/FcfUxQnZmZaV2c1lx40RwfwY4hIztf3S4I1+tP9VJ46kf6funLWvrJ3xR//J964VfNNaJ/A2WdNK1CfP2nzPmetD6YcL3PrWGZ9tdP8Hy+qJDS++3jKWb9ZyaoNpyP5xyW7XcG1K7pag2qzTnU/pDE9XgPP/y2tsnH/Wru7+2cDQAAAAA4Z/g1rB4wYICGDh1qDWbcG1+Xq0lMBXXLli2tSlETpJiKcPPTfP386NGjVqW4uc0Mx48f15EjR6zbXMuaMMZUEJoLMl566aX2Wv0sNaXWhdQuG2Y8UawKdMOMtdof1Uq97ORi5OD20rYPT1c5f/yltmU3Vy87FSrv/qeN1MQB9bV/f7Y97TSyTXNp/9riVdQfT6nRlamBYC6mePGlfXXyZLYWL1ygvXt2O47zUOu2Tl26auSo69WgYUJRUO0azPFv3heXXNrPWkdFmNdm/9oPtcfxerephWl1bd/+6mKOC8OcJ823TZYtW6Y1a9Zo5MiR1r8L27dvU3RkhNKyg9X1gjC1ahKuLu0a6LHbGqppfald61gVFBY4VhSsIKsOu3wjJ96i9qnLPHyg97Gm1MIP+WoMtw8Ti58zN2jGFPYrAAAAAMB3fm0D4omnNiCe1PQ2IH/+8581cOBAq4LUtDEwVWMbN260AhfzlXVPXLd16NBBL730knWhORPaffbZZ3r22Wftpbwr/nXu4i0p3NsWtCrxtW/XV73Lur9R8qvw+93aBpS8rfjXx51f9dayZeaTBzV3tdwo1qaj+Ppc93G7tZyvxZvleynd2mbPbR2sbYxd6+Ur5u73t2c5mH3SK/1tfagbirV9cN+fbosXV6JNSNE+KfG8ref2drp6eWsp4m09tUDfAZfpprG36PstW/TP//u7CqzWH86Lil4/5mYNHHS5sjIzHNNSXl5eUSBptQhxzIyOidH8eR9q+dIl1vzymdexjXY5jpU9Xl8ju62LvUOzty3TnlYDShwvZR9/Ra//2ljdUvRalj5Gi7+nyjuGDV+2v+R6XceKc5tLvc8cS/j2/nxb6b3c90vx48zr+cHT8Vzu86w488HdG2+8YV14NiXliK68cog134TWu3f/aLVOio6pr7/95Vld132nIqNitMlxKr+geaHW7gjVoC55WrUjVjfcNVm/uv9ebdlaThsQ631nvj1R/JzgTZmvtadznTzvN0+ve2Vev+LnU4cyz7dOrvNd8fOLb++FZXtaaYD94M7ta+V2v+L/nlj7SuW3+/B2zBWf70DrEAAAAAA4Z4W0bNnySXu80g4cOGBd7Grt2rWlhs2bNys9Pb1Cy/mDqWZ2cfXHrgpzYUXT2sCEzWZbTcjiCxPWpaSkqGfPnjrvvPOseaYtwrx586xx70bq6j579ac//V2LFy/WkZaDdfmlbXTky3U67Li1Sc/B6lr3hDY6ppeuMrcPUNecVXrYsfyX68wSZd/fGZakatnDf9LfHbcvPtJSnequ07ofnMHBiKZJevux5/Uvc9viKHX7+QgNb3nEXveF6jO0lZq3CtUG6/6r9IMJgkY0VdLbj+n5fxVfnxUSTbpI2cse1p/+btZntme4Rvy8m6LMfR2LlDLyat3QKlvf/8vcfokuG95I6cu+lPXwNmsfRBzQ4lUe1lDs/raRE3V34gG9//Jnktv+M6s8vC5WnYZfpP5DO3nepqKgy35+9j7pE7VYqz5eZU13GtpIB6zbHfc/vE5fLj6ilgO6KmeVed72tpe1Ho87omYZcNnlat26tdZ887W2/2DCwdMf1AQFByk1NVU7t2+3wuv69RsoPy/PGjfMe8dcHM9UZW/asN6aV55ud41T/5wt+rtj5xwubKMBF7VSnSPux4EdVJtqWftYT+05Tpc3DVP6Xnuf+nD8WcdS06bqGrqhaD0llykK5NxvH3X6PeVJ+dtvr9e08HG936LaqOcJx3vnsIf3mb28b+/Ptjr6fvHj7PQyZZwffvBwPJsN9bMGDRrouuuu05o1q9WrV2/rQp3BjmPIHF8XtL1QM994Wwe+fU35abvVoW2csk4GaU9KkPLygxUbXahWDdK0L7ePOnfpro8+mmsde2W65DINb3RE/3nP++vlUuZr7e1c5+k84FiX+7na2vOVeP3M+b3/RW7nSyuoVrHz9/ARo9SmxLF1YZ+hapa70V6vQwXeC42Ovq/Hnv+X43jspOEX9dfQoue1WFGdhuuii1rax3439R/uOM9t+Xs55zDvx5z5N8w8ztBGB5z7pTacDAEAAAAA1cIvbUBMCJ2UlORxMLe5+LpcTWTCb1MdaoI3087AMOFbeVyVpaZViLmvGRo1amTNK9vHmuJWWbZh7R5lR8XK5xbKZd5/pKyuGm+7VQpumKEZZqLbXerVPFvbPnSv/nSsa9l+RbXqVayfaPa2L0/f35KqFNedXOtzMC08ovYvK1b1t2HGh1YbD49tEUygMqC59i/zoZrTU59Zj/cfabX/KP683Dme48Omx2tzDXjxxVK9U0u1IXEs/+W2bDWvYF8Hf60nUEJDQ1RQUKifHMdzWFi4YwizBvMBzNbNm/Tpx3P1+aLP9N8vFikyKkoxcXHWhzx1HENGeprMu8G0ffBNN/VqFaX9u+xXccNa7cmOUiv33i5W//H9WuZ+rFvHlj3h4PvxV3I9ax1z7GWs94WH2z22mnHxYftd63Wvtv7Y8d5xO0iLvc8q9P4sfZydXqaq5xf/MW1kXO2Vsk/m6YP339ETv75B3335uiKztihSaZr270wlxBUqqDBX2/bmqWubYH34Va527TvuOKc6jir7PFuWbgn1S7VKMh/avWje79Zg98D36bX2fK4rVyVfP+exWF8J1gLddFevEuc3xzas3V/i2PLA5/dC9jZ96Hpwq+VS8e35+MttbsdLK8VGZSt9jzVRhppzzAEAAAAAai6/hNXNmjWzvtLtaTC3ufi6XE1n2nkYrorRsriWMYGdYaZ9Duu63aWnXEFKsZYSPvJ2f3PBN/ewxV2rWMdyHm7bk14qWEh1X8gK4pxB71PFrsrWTSYjyi6VZGxQSqrJmkuEK6Zi0LGtqR6+0u5RyT7dHu9vqm9NGWL5X/93XpzMXBSsvW4pulCa8zlEtb/FLdh60fk1/gpdlM1f6wmcIMd/ubk5GjLsaj38u/91DE/okcf+oP958FHdfte96tipi7Xcj0k79cG7/9KWTRu1/Ydt+uyTj7VyxXIr4Dbr8Em3XmoVtV+urNccM2v3uAeujkWcB5e852QVOP5KrWeP0l2ht/W+sD/IKBpMS4Qo7xfh9GX7e7VSVJnbX+J9Vtn3p8MG84TdVfX8UkWuc2NCQoJ1sc6Uo8f03J+f0InvXtCYi47poeui1bBuuDo0zVbTyONKTg3Rdf1DNWaQ45+t3FSFNuir60ddb+XUrg8Fy1XifWZ63VsXAnx7m4o+3yjvtfZ6rvNBFV4/x5nDPtZMOCw1H+C+fc42GlFlXhG2gufiEkpvj7sy3gfuAnzMAQAAAABqPr+E1T/72c+sNhmeBnObi6/L1USmMtpVSd28eXNFRTn/zC4rJHHdZlofmK+2m2mzDrOu8lgVf1a7CBOelghTfFDu/csKyMoJzzzboBlPmMdaplQrjHUFvU5lBx1O1jZbX20vGVSb0LD8MMTr/a3q2+LhjhUQR7kH0u6cz2XZ/ii1H3y63ND0bbX2pftQVo9rL/y1nkDIL8hX4alTVjV1ZGSk9T4wP803Dzp27Kyxt9yhC9q1t5Zd880qvTnzNc2YPk1L/rtY8fHx1v3y8vOt28tjBbklQkPn61aimtmHC4v6cvyVb791bJV87bx9qOLP7S+mUu/P4qp6fvEH86GdCax79bpIm7bt0YfTH9bI5nPVsXW8UrOiFFpwQrFhJxUbflKXJ+7Xuo0p2nkwSDFhGfp6Xwddd+NdSkx0nhR8+eCwYpW8Zb3WZZ/ryuWH188wPapLbp8vfZ79815w5/xQp7ywuyYccwAAAACAms8vYbXL3r17rYsZmsGMe+PrcjXJDz+c7qHZokULDR8+3ApIzOCpHYiZ57r92muvVcuWLYu+6v799+VcCMzBah/gQyWwZ3b7AW/3t6r4vLQv8HabqQj0KWRxttN4e5vsoNdZtVe6zYWzyq8oOBk50XkRMo8XcvNU+VeixUJZ9/94SqlQ523n99ody3vfx3uKymqdj1921aIv/LWewNmz+8ei47qgoKBoMMe26TkfERmhnhf1spYtel84ljUhdavWbaywe/duXy546jqGi79uZnD/EMGqFm7extm+oYiz8tTJx+PPI7f2BuZ9UdSGwRdV2f4yVOH9eboNRjnnhzPEuuimTunYiSxl7vuvTiR/p4Ppsdp5tI72O3ZLxslTysrKVH5elsJDg9Wr8U6t/e6A/vR2iLoPvFsN6sfr5MmTzpX5wq6I7lVesuzza13yXOeDKp9fDd/C4dKq8l4oywbNWLtfUe0Hl3Ec14xjDgAAAABQ8/k1rH777bc1bdo0azDj3vi6XE2ycuVKK2g2/aqPHDmiiRMnasyYMYqLi7NDl+LMvLp16+rmm2/WhAkTipYxwZ5ZV3mKhwrddNcNFfnKdMlQosT97f6m7W9w68vc7S7dZRb3dJvV77m59q8to/p35ERNdEsqWp1OC539TZsPKHZ7t7tuUHtt05dWsmz3YC1j/R/vMmHIDacrGE21dAXuX56RE0tWR5q+3qfDcE/PoeRzlmMPe8qh3UOl8tZjVR8W9cs27UvcWg1YX6GvYBWnn21cv05ZmZkKKvEBTYhjOiIiQuFh4daF8gxzzLs+tOnavafOT0zU0aMp2uzLxRXtXtSnW2icZo6FooD3411WX2n3AHLkRNOy4bTyjz9bVHvdUHI9+9c6wzWP7wvH6zOxeG/zIj5vv+kH3FwD3DdupOO96O01rsD7s/kAuwez4Th2HKcAbbOecDnnhyI+tnaoJPPFk6CgYH36/isKz0lW+yt+q9dWtNb4JxeqTvtbFdbzL0qOvUM7cgfo+0MRyszK0aBW2zXgvB1aPP8tncjIUURYqOM4K7DXWJ4NmvGhSZZv0YvF37jFlfdal3Gucypjv1X2/FqMKxx2Ox86dLtrYrnnBp/fCxX18RS733/J85Nrv/l4zNHDGgAAAADOeUH9+/cv//vT5bjvvvvUpk0bPfPMMzp27Jg1z7QFeOyxx6zqaRNKG74u5w/mcVzMuqvKtDqYPn26YmNj9cILL1htS/r27avDhw9r2bJl1rbn5uZay5q2H+PHj9dll11mVWEbJqQ2wd2OHTus8Lr8isCRmmj1STWytW3ZHrUaEKu1duWwCTWtSmK7fYQ1HbvW7WvgZd/fGDnR2efUybHM26er3orf5vzK+elvmDvXLfd5Jkh170G6f1nxr6SXvN1UNRe1vuimu566xWrVUYr7ekZO1ItFG2W+pu96Lj7e343H/VdiBcWfs0Oxx3co9hzc1+G2bUX3cdu/Zayn+HY5n1erPW/rCXNHax+ar9EHtjrxquEjHMO1+umnn6xj2lRNp6b+pIWffaJCx3GekZ6h5OS9VkhttGzVWj+/9U41bdZcC+bPs5Yrj3X8yfNr57i1xPHnfqyb1+1tpfe6RbFryzg+Pb12jv2+bE8rDXAdByWWcSxV6jgrdYzYKrb9JdfrOn48vM9svr0/l0kD3PdL6WWct3k+P3g8nv2oW4+e+p/77tSHU3+tq+/+q7p3764jhw/pttvvUHzdunrooUd0ce+e+ulYpnYlbdeuzV/pZPIXSozbp0OpuSpsdYeuGvuI4iKlu+++u9i3X8rm+XxRfP+U8VqXc64rud/2FHtPO1X4/Oph3unHsXk415nH6ZVunz9cfHwvnJ7n3Bel30/FjxdLyXObw+nnVt4x57bPvZy3AQAAAABnP8LqChg4cKCefvppbd261dpmU13dqVMnffXVV/rb3/5mhXOm+tr8/P3vf69hw4ZZAXZoaKg1z/RoNfcz4TZQ27iOb1NBfcddv1Dbdu11/Pgx64Kj+/bt1bRX/mIv6WSC7F69L9HlQ4apcZOm+n7LZr05c7pyck4WrQvnrpCwaP3m+kbKKozXz375d0WGmg/0TB/rQs2YMUMhjvGxPx+ryEhnrFrg+Jdq/4EUbVy7VCd/nKNTJ7boVOOh6j7gZj3x1EuO25Kt5QAAAAAAQO0V0rJlyyft8Urr3bu3FTobrVq1UmJiojWYcRNKr1271rrN1+X8wfU4hisYrwoTrO3Zs8cK5gYPHmxVRv/zn//U4sWL9d///tcK3wzXRcPOO+889ejRo6gVgpk/a9YsffTRR4R0qJVcx635lsDO7dvUvMV5Oq9lK2VnZyksLFz16zdQTEyMmjc/Tz179dagK4aqb78BqueY//3mTXr/nX8pMzPDWgfvAZzMylDvfkOV0KaP2l7Q1jomnOfLEPXseZF1/gwNDbPOp2Z+iOOQiY+LUbv2HRXb6kql5jbQyZRN2rFzuz75fI0iIyPsNQMAAAAAgNrKr5XVnniqrPakNlRWu/z617/W6NGjlZqaqt27d2vBggVauHChFbaYYNqEebfffrvuvPNOK6Q23nnnHb8+PyDQTIX15VcOVe9L+io2Ns5qlXPK8Z8RHOR4HxQW6GhKitZ8s1JffvG5VVENuFx44YX6x/R/Ki83VyHBxT+8MOdQ1/nUnQmuzRAREe440oKUfbJQURHBGj/+Tu3cudNeCgAAAAAA1FZ+CaubNWumqCi33plusrOzdeDAAWvc1+X8oWXLllb7jZSUFKWnp9tz/eeaa67RuHHjrArq999/X3//+9+LgmkTtPziF7/QLbfcYgXl7733nj777DMrfHFVYANni7j4eHXt1kMtW51f7D2we/cu62KKaWknrHmAu86dO/vtA7z7779fmzZtsqcAAAAAAEBt5ZewuiYyVZ9mMEF1dQXEpiXIVVddpe3bt2vz5s32XCcTxLRv396qus7KyrLnAmcbUxFb3vvLl2VwrjEXpx0wYEBRq6TKcN3XXAegcePG9lwAAAAAAFBbnbVhNQAAAAAAAACg9qhcORsAAAAAAAAAAH5EWA0AAAAAAAAACDjCagAAAAAAAABAwBFWAwAAAAAAAAACjrAaAAAAAAAAABBwhNUAAAAAAAAAgIAjrAYAAAAAAAAABBxhNQAAAAAAAAAg4AirAQAAAAAAAAABR1gNAAAAAAAAAAg4wmoAAAAAAAAAQMARVgMAAAAAAAAAAo6wGgAAAAAAAAAQcITVAAAAAAAAAICAC5q3fNcpexwAAAAAAAAAgICgshoAAAAAAAAAEHCE1QAAAAAAAACAgCOsBgAAAAAAAAAEHGE1AAAAAAAAACDgCKsBAAAAAAAAAAFHWA0AAAAAAAAACDjCagAAAAAAAABAwBFWAwAAAAAAAAACjrAaAAAAAAAAABBwhNUAAAAAAAAAgIAjrAYAAAAAAAAABBxhNQAAAAAAAAAg4AirAQAAAAAAAAABR1gNAAAAAAAAAAg4wmoAAAAAAAAAQMARVgMAAAAAAAAAAo6wGgAAAAAAAAAQcITVAAAAAAAAAICAI6wGAAAAAAAAAAQcYTUAAAAAAAAAIOAIqwEAAAAAAAAAAUdYDQAAAAAAAAAIOMJqAAAAAAAAAEDAEVYDAAAAAAAAAAKOsBoAAAAAAAAAEHCE1QAAAAAAAACAgCOsBgAAAAAAAAAEXNC85btO2ePVqrCwUFlZ2So8VWjPqV6REREKDw+3pwAAAAAAAAAA3pw6dcrKbwsKCxQdFaXQ0FD7ljOnWsPqkzk5+uab1Y5hrVKPHbMC6zMpLCxMF1zQRoMHDVTL885TcDCF5AAAAAAAAABgwukjKSlasXKVvv9+m06cSLNvcTLZarOmTdS7dy917tRB0dHR9i3Vp1rCahNKf/vdOn08f4FycnLsuYF1/vmtdfONN6hevXr2HAAAAAAAAAA49xw+ckSz58zV3r377Dlli4iIUJ9LLtYVVwyyOlpUF7+H1Xl5eZr/6WdavXrtGa+kLk9MTB2NvflGtb0g0Z4DAAAAAAAAAOeGgoICLflqmRZ//t9KZbeNEhI0duyNat6sqT3Hv/zaF8M8WVNNvWrV6hoXVBsZGZl6970PtG9fsj0HAAAAAAAAAM5+psh47rz5Wrjo80pnt6ZtyIyZb2jHziR7jn/5NazesHGT1qz91p6qmUxgPeejedZPAAAAAAAAADjbuYqMV69Za8+pvOosCPZbWG028quly2tkRXVJBw8e0tpvv7OnAAAAAAAAAODs5e8i4+oqCPZbWG2acR8+fMSeqvk2b96i7OxsewoAAAAAAAAAzj7HT5zQf7/8yu9FxqYgeMXKr3XqlP8uiei3sHpnUlKtqKp2STl6VEd/SrWnAAAAAAAAAODss2bNtzpyJMWe8q916zfo2LHj9lTVBc1bvqvK0XdOTo5ef/Nt7dr1oz2ntODgYPXu1VPt2ra151Sf/Px8LVuxUsnJ++05nl0/6mfqc0lvewoAAAAAAAAAzh6ZmVl67Z8zrSro6uLPjNUvYbVJ5l+bPlNp6en2nNK6dumsn4+90Qqtz4Tk/Qc0/Z+vl9nqo2eP7rrpxhsUFBRkzwEAAAAAAACAs8Pu3Xv0z5lvKjc3157jf/7Mff2SHJuwuqyg2rjggsQzFlQbDerXU0LDBvaUZwcPHVJWFn2rAQAAAAAAAJx9Dh0+Uq1BtWHaLWdnn7SnqsYv6fGuH723/zDCw8PVpHEje+rMiIqKUpMmTewpz44fP67UY8fsKQAAAAAAAAA4e5w86Z8QuSymRbRpy+wPVQ6rzcYcKKfnSYMG9ZWQkGBPnTmJbc63xzwzif/+/QfsKQAAAAAAAAA4exw9+pM9Vn1MxpqekWFPVU2Vw+oTJ9J0NOWoPeVZQsOGioqKtKfOnMaNG6lOnWh7yjPTt+XUqSq37QYAAAAAAACAGqV+/Xr2WPUJCw1VeFiYPVU1VQ6ra2K/apd69eqqQf369pRn9K0GAAAAAAAAcDY6E5lsWHiYIv1UqFzlra2J/apd6FsNAAAAAAAA4FzVtEnjag+s69evr8iICHuqaqq0pb70q46Pi1PDhg3sqTOPvtUAAAAAAAAAzkUJCQ0VFxtrT1WP81o0twqW/aFKYbUv/aqbNm2i6Oiy+0ZXJ/pWAwAAAFL2ge3avGmXUv1zoXYAAADUAnXr1tX557e2p/zPVFR36HChPVV1VQqrfelX3apVy4D0q3ahbzUAAADOeQc+11//9pbemjVTz/3rW5X9G7y77frk+ef0nGP4ZIc9CwAAALWGyWV7XdRDYX66AGJJiYlt1KxpU3uq6oLmLd9V6ZLij+d/quUrvranSjPl33ePv12tW7ey5wTGnA/nafWatfZUaVFRkbr7rjutknUAAIAa4acl+uuLn2u/Y7T58F/r1wMTnPNL+n62HnlzgzXa4/Y/a2wHaxRnK7fXu5TgUMUmNFWHS4doWK82ig215xt75+tPr37jDKkTR+h/77lEvn0ZdKve/e07WucYqwnH17YPfq+Z39kTPkvQtQ//WgMD15kQAAAgoAoKCjTv35/om9Vr7Dn+Ya4XeNf429XyvBb2nKqrdMlzdna29u7dZ095Fuh+1S70rQYAAMBZrzBf6Yf3afW8mfrTi7O1OdOeb7QcoYl3XamB/a/ShJ/7GlTXPO2vuFIVLi/pOYSgGgAAnNNCQkJ0+eDL1LhRI3tO1ZmK7csHD/R78a/PldWFhYVK3n9Amzdv0f4DB5WSclRpaWnWfG9MeXlsbIxjLMg5I0AK8h2/uGdklLmtERERVrPx5s2bqYVjJ3ft2ll14+PtWwEAAM4wKqvhidvr3fnG32pUW2vUknciSZuXfa5PNhxzzmhxlX77q/4quyFeeWpWZbVRsepqqqoBAABckpP364233lZamu9N4TwxQfUlF/fSyBHXWEG4P/kUVu9zPJH335+jIykp9pyzn9npfS+9RFcNG+K3q1kCAAD4zF9hdWG+juxYrtWrt2jzAfNLaayadeqkiy/tr/YN3PtEGAe1+qNV2usYa9lnlHqGbdAXn6/Spr3HlB9eT60699Gwwd1U39wtP0P716/SF6vXyqw2tGFLdbn4al3RpZ5KrtVS6Fj+u1VaumGL9hzNdmxGM3Xu3EsX9+moRvyq5TsfPpzYv/Al/fVLE1jH6Ipf/VbDrG9lnn5t63UaoisuNAUlbjy+no7lOqVo9mNlhNWZjvWu/FLrN+9Vaq55WTs57tdHfdsmKLTkdzjzj2nn2m+1Zot9DChK9Vu2UfvO3dSjQ8vibUvK4vbeKFfPn+uFGzvaEwAAADDXIHzzrVlKOXrUnlMxJjMd0L+vlZn6O6g2Qm4e/+sn7XGPNm/eqrf+9Y5VRX0uOXXqlPbuS9aePXt1Ybt2iojgrygAAHAGZe/WNyt3WT2G49r2UZ9WdZzzSzq6VYs3HLZGm3a/XF3cM+3MrZrz8iuavWqX9qRkKPtkrmPI0JG9u7Ru5XJtONlSPdrV0+lLrezT0jcX6dv9B3Xi8Pf65LNvlHQ4TZnmfplpOvTjVi1fs1vxDXK1cMZMfbp+t46cMOvMVWZqin7c9LVW74tXlx7NFGWv0ZLyjWa+4lh+3W4dSs1ybseJn7Rnxyat/GqdMlv3VHsrAUe5ynq9bXHxWdrw9W5lKld1EgeqWxOTGp9+bU82u6j48ZSyXFOff0MLN5d8Pb/RV0lHFXQ8wzoOSz7ekdUz9fL0RVq/K0Wpmc77nUjZr+3rv9EXGzN1fo8LVd91cJlj4G+Ox9jodgyczFLqYcfym77V5qAO6p/oY3OS6Naqm/pfrTtoT3uVoGtvGaFW0fYkAADAOcb0qj5w4KDWrd+g7dt3qmnTpqpbN149unfTsWPHrc4ZJgP1VZ06dTRm9Cj179dXQUFB2rEzSStWfq2TOTmKCA9XZGSkNb8qygyr9+1L1rvvf2D1pz5XmRfup59+UqeOHarl0wIAAACP3MLqqBbd1KVxiHJzc0sPhzdp6ZafrLsUCxMLd2ne5Le0ytQbBMfogn6X69oBPdSta0vVObJb+zLzlbl3nXaEd3ELLlO0+fNNOuQYSz+eocL48zTw6mG67KIL1TA/WT8ezZVyj2nrxu0yo7GJl2j48L66uEMzBR/ZpUNZjpt/2qbjjQeqW2O7rDZ3u+a8MlsbzHbEt9EVo8foppFD1L9bggr37NS+jCztW79DEd0vJlT0hQ9htY5t19LVe2V+g2/UZZAdVp9+bYt9+JG9Ve/+fa62nXSMezhO9uxPc16U0cH98fJ/mK0p725TuuNvm9gOg3TzzTdo5JC+6tE4Vz9uP6jMjP36NilcF13cUlHK0OoPZmqpuURMrOMYGOM8Bgb37agLEkKV/lO8Bt7QV00rcIH6ho7ntNV+f3jV8zrd3dvTDgIAADi7mb8Tlny1TG+8NUsrv16lHTuStOvH3dq2bbsSE9tYgXWXzp3UuVNHHT9xXKmpx8oMrc11Ca+8YpBuumm0WjRvZi379dffaM6H87R79x5t2rRFy1d8rW0/bFdCQoK1/sqG1l7D6ry8PH08fwEXHnQwL1izpk3VqBG/7AIAgDPELazO3P2tli5b7nmwg2rDPUxM/+YDzdpoEuJI9bjtQd3Rr40aNW7iGFqq/aV91DRltTYczld60jE1HdBNjazP5E8HmorqqNseulP9zzf3aaYLuvdSw4NLtdnuChfV7ed65Pb+amPW2bS1uvRooqOrHffNl44EN9MQe0P2//cNfWSS0OB2GvvoHerfPF5REeGKimum9pd0UvD33ygpLUP7CltrcPt61n1QBh/C6j1L3tPSfY4XQjHqMmigLogzcz2H1fuXvKV5VlJd9nFinH68g1r8+nxtM2l4p1F6/Lb+ah4XpYiIKMU166C+XQq19evdSk9LVuH5A9W+/m59PXuD9jv+/mk0+Dbddkkz6xiIiIpXwxYX6qK+XSoUVFvKra6mqhoAAJybTJuPf854Uxs2brIqq91lZGZq3fqNVpjcuHEjxcXFWlXWgy4boI4d2qt5s6aKj49Xi+bN1aH9hRo4sL+uveZqXXnFYLVu3UqhoaE6fuKEPpjzkZYtX1nq+oCmF/Z369ZbrUJatTzP+llRXu9x2PHETOJelujoaCuBv+iiHmrYoEGlNiBQzAUV27a9QBf3vkhNmzYpc9vNC7t+w8YyL9AIAABQcxzTurX7nKOtB+naDpHO8SKR6jygl/PCe4XbtWmHNbOY+n0Gq3OxXh6R6tK1XdF4j0s7Fm/1EdVRXVw3pxxRqjVyTEk/2Bf769RJF+RnKD3dbciMUo9e51k3Z5te1tYYfJWXXXx/Hkn6VgvffE5TV5rw2SFxsPpa/aq9cXt9yjtO3B1L0jb7M5LOnS5Uvts2WENkN/W2Lvx4Uuu27HL8bKaW55tpxx9Pi2fotY+WaN0Pe5WaflLOGLxy2l9xpbxee77nEC6qCAAAzjmmQ8S/3n5Xhw47ixs8MR003n1vtl58aYqVd+bn51sh9HnntdCll16iG67/mTUMHXKFFWCbQNs4duyY5v17vl6cPEVbtnxvzfPE5KeLP/+v/rNwcamw3BdeL7C4bt0Gvfv+bHuquKioKF33s2vVrWuXYiGvSdZnz5mrHTt22nNqHhNSm7L1vpf2UVjY6RKOrKwszf/0M+t5ewqlExo21H2/vFsxMSUuRgMAAFAdqnSBxRQt/dtf9Yn5gpzXC8xt1bu/dV447/T6Pc1zU/RYCbr24V+XCgO3ffB7zfzOMdLsSv32fwapvvt2lKubxj83Ru3tKXjh9nqXKeES3Xv/CF1Q9ImCp9e2YsdJ0fFVmQscmr7Yf/2P9pRMp4ND1bz7lbpuRH+1Kvbph2+KjrliPB+fAAAAZzPT+uOtt9/V9u0eKlHKYPLRZk2bWEW9TZs0saquTf558NAh5ZzMsfpS79i5UydOVOx6hma9N9802mo3UhFey4lPeLmgYkxMHd09/narRLxkNXLd+HjdfuvP1bNnd3tOzWJ20o1jrtdlAwcUC6oNUyU++vrr1LvXRfac4gpPFToG3xuOAwAA1AjeihnS04v6/UZFViIlrKjW/XXbuDFlDJd4r5JFhYT2HKM//sY9qPaBD8eJJ60Genot3Ya+LZ0LJvTXhKee1KR7rtIVF3fUBY1jFGWuqVmYr/3f/UdTZyy3q/ErxmN1NVXVAADgHGTab+zcmWRP+c60gt6zd58+/+JL/WvWu3pl6v/p2ecn640337YKmdd++12Fg2rDrNesMyMj057jmwr37bjyisutsnBvwsPDNeSKwapbt649p+boc0lvq22JN+YCildfNUQtWzq/jgoAAFA7JahVa7ulw6a1WufhWtlH1q6S87tw9dSqRXV9c8xtOw6nShd0U+cu3oaWcn7BEL4ylc4vPHd6+PVgZ8/v/O+WaOXpVuZlSFCzlr4eJ24atCyqgj5yIkyJHl9Pe3A/toJD1Sixv4Zd/3Pd+5vf6o9/flKThtjV+8lbtLPMqyV60WCQhvW0xy0JuvYK77/vAwAAnI1MIPz1qtU1roXxwYOHtHHTZnvKNxUKq03ldPsLrQZ0Zapfv746dqxZX+I0IbopOy/vSpSuPtwAAAC1Wat+g9Tc/KZXuF3vvjpbm1Ps/gv5Gdq5dKb+sdC+UmKnQRrYzDlaHYq2I3ur3jLbcfh0n+L8E7u09PXn9Nel9ragSpoPuU3DrNcyRQtfm689PvytckGv073LrePE9fqUPE6KaaOBVzS1xrI3vKOpH23QkWz7VS00F+1copnPTpX7y7r/y3/otU++1f4Tbn1AHNuXZ49KsYp2XvOxwopVV1NVDQAAzkF79+7T4cNH7KmaZd36DTp50r6mig8qFFbXb1BfdeqU/1ukCYRNsF2TxMbGWNvvi0aNvPSEBAAAOFNiY+Wsk62kBv11763dnNXKKRv01ktP6pHf/l6P/P45vbZgl7O1Q3w3jR99UfELJfpbye34y5/1mNkOx/DYszP1yQ8Z2v+f+VpXsW8HwpPgBF0x9krnhwPp3+itedvLv4Bhi6s0/tqmMh05ir0+ruPEy18L9fvfpfE9nVXZR1bP1uQ/2sfXY0/qT9M/17YTB/XJgm9lFWvnbtAXi/dp5/K5+uuz9nL2sn9d7Ey0G10xWJ0r9JeJm6LqaqqqAQDAucdUU2/YuKnGVVW7HD50WIeP+B6kV/ZXQgAAAFSn8CgVv8JGxUV1GKPfPTxGA9vWc4aRLlH11PmK2/S/j45R+zPQrtrrdpi2EJ2u1ITHx6tHJatqUULCIN063Fn1nL76A83+vvwqlkb9J+h/f3mlOicUe3UU1eIi3fboz9XDni4uUu1v/K1+O+4SXdCg+P2s42v4eP3xVvuDkPBOuvb2K9WjZYyiSvz1EdrgPA0c95AmDnFuc2VZ1dVUVQMAgHNQekaG9u1LtqdqnpM5Ofrxxz32VPmC5i3f5fGqgUu+WqYFny20p5xMtfQvf3GX1eajLKdOndK/53+qlStX2XMCz7QBMReGbN26lT3HO0/PvUGD+rrvl/coLpZuigAAoDbKV3b6SSkiRlHh9qwAyc/MULYiFVunRMiJwCt0HCeZ+QqrE6nQipS1WPfz7fjKz3a8/vmhiqroYwAAAKCUHTuTNPP1t1RQ4O2K2YHXocOFunXcWIWGlv/7f4V+PTx+4oS2/bDDnvIuNTVVW7dus6dqhtzcXG3avMUK0suSlZWlzVu22lMAAABni1BFxQY+qDZC68QQVNdUweY4qUSIbN3Pt+MrNMrx+lfmMQAAAFDKoUOHa3RQbRxN+cnnvtUV/hXx8y/+W2ZpuQmFF3/xpY4fP27PqTlWfbOmzCDavLCf/Wex1ZQcAAAAAAAAAGqyAwcP2mM1V0Zmho4dP2FPla3CYXVGRqb+OfNN60qOJRt3m8rrN//1jr77br09p2bJy8vTB7M/0ldLl1nj7kxF9ZyP5mnN2m/tOQAAAAAAAABQM5mi4RM+hsCBlJ19Uunp1iXey1WhntUlRUdHq835rRURGaE9u/cq9dixGnvlyZIiIiLUsuV5qlc3XvuS9+vw4SNlbjs9qwEAAAAAAADUFJmZWXrtnzN18OAhe07NNeLa4RrQv6895V2VOsW5+jt/++06Hf3pp1oTVBs5OTnasWOnVq/51npBa9O2AwAAAAAAADi3FRQWWNXVtYGvfbW5rAkAAAAAAAAA1DIns08qL7d4q+Oa6vCRI/ZY2QirAQAAAAAAAKCWyc3LU15+vj11diCsBgAAAAAAAAAEnNcLLB45kqKP5n2s4/YVJQvy85WekVGh3s7mIoZ16tSxpwLHbHNaWlqFtj0sLEyxsTGOsSCFBAerR49uGjxooEJCQpwLAAAAAAAAAECAJO8/oOn/fF3Z2dn2nJrroot66KYxN9hT3nkNq0uqzJP3dSOqW1p6uqb933T99FOqPad8FyS20R2336Lw8HB7DgAAAAAAAADUDAcOHNT0Ga8rMzPLnlNz+ZoT0wYEAAAAAAAAAGqZuLhYRUdF21M1W+NGjeyxshFWAwAAAAAAAEAtEx0draZNm9hTNZdpq9y8eTN7qmyE1QAAAAAAAABQywQHB6tz547Wz5qsRYvmOs8x+IKw2ouw8LAa/0IDAAAAAAAAOHe1a3uBFQbXVCZfvbTPxYqMjLTnlM3nNDY6KlIRFbzYYLOmTe2xwAoJDqnwhRIb1K+v0NBQewoAAAAAAAAAahbTCuRnI65RTEwde07N0rvXRerWtYs9VT6fw+q6devq/PNb21PlMzuobdtEeyqw6tSJVtsLLrCnymf6qFx4YTt7CgAAAAAAAABqpvPOa6Hrr/uZIiIi7Dk1Q/v27XTN8GFW1uorn8NqU7Ldr9+lioqKsueUrUvnTmqUkGBPBd6lfXpbgbsv2l/YTm0qEMwDAAAAAAAAQKCY3tW/mvALtW7VKuCtjaOiInXN8Kt067ixPrf/cAmat3zXKXu8XKdOndLGTZv1weyPlJeXZ88tzaTmP7/5xgpvTHX7ftsPeu/9OcrOzrbnlNbyvBa69ZafKz4+zp4DAAAAAAAAALVDbm6uTubk2FNnVnBQsKKjoyodmFcorHbZtetHzfv3Jzp0+LA9x8mUml95xSD1vbSPwsLC7Lk1y+EjRzR7zlzt3bvPnuPkavY9bNgQRdawknkAAAAAAAAAONtVKqw2TJX18ePHdeDAIRUWFqpu3Xg1bdqk1lyUMCMjQ3v3Jasgv0DRdaJ1XovmFb4IIwAAAAAAAADAPyodVgMAAAAAAAAA4C+B7bYNAAAAAAAAAIADYTUAAAAAAAAAIOAIqwEAAAAAAAAAAUdYDQAAAAAAAAAIOMJqAAAAAAAAAEDAEVYDAAAAAAAAAAKOsBoAAAAAAAAAEHCE1QAAAAAAAACAgCOsBgAAAAAAAAAEHGE1AAAAAAAAACDgCKsBAAAAAAAAAAFHWA0AAAAAAAAACDjCagAAAAAAAABAwBFWAwAAAAAAAAACjrAaAAAAAAAAABBwhNUAAAAAAAAAgIAjrAYAAAAAAAAABBxhNQAAAAAAAAAg4AirAQAAAAAAAAABR1gNAAAAAAAAAAg4wmoAAAAAAAAAQMARVgMAAAAAAAAAAo6wGgAAAAAAAAAQcITVAAAAAAAAAICAI6wGAAAAAAAAAARckGM45RwFAAAAAAAAACAwgk452OMAAAAAAAAAAAQEbUAAAAAAAAAAAAFHWA0AAAAAAAAACDjCagAAAAAAAABAwBFWAwAAAAAAAAACjrAaAAAAAAAAABBwhNUAAAAAAAAAgIAjrAYAAAAAAAAABBxhNQAAAAAAAAAg4AirAQAAAAAAAAABR1gNAAAAAAAAAAg4wmoAAAAAAAAAQMARVgMAAAAAAAAAAo6wGgAAAAAAAAAQcITVAAAAAAAAAICAI6wGAAAAAAAAAAQcYTUAAAAAAAAAIOAIqwEAAAAAAAAAAUdYDQAAAAAAAAAIOMJqAAAAAAAAAEDAEVYDAAAAAAAAAAKOsBoAAAAAAAAAEHCE1QAAAAAAAACAgCOsBgAAAAAAAAAEHGE1AAAAAAAAACDgCKsBAAAAAAAAAAFHWA0AAAAAAAAACDjCagAAAAAAAABAwBFWAwAAAAAAAAACjrAaAAAAAAAAABBwhNUAAAAAAAAAgIAjrAYAAAAAAAAABBxhNQAAAAAAAAAg4AirAQAAAAAAAAABR1gNAAAAAAAAAAg4wmoAAAAAAAAAQMAFnXKwxwEAAHDOOK6v3pitRUfsSTc9Rt2j0W3tiSIVXR4AAAAAKoawGgAA4Jy0XzPHP6Lnd9iTbkY8N0uT+9kTRSq6PAAAAABUDGE1AABADbfqpXt0+7wse8pdgu6bPkUT29uTFVLDwurkeRo1dra22pO+C1Nc0zpKbNtdfXr31Ygr2ykxJsy+DQAAAEBtQs9qAACAmix7pWbN9xRUGyma9s5K5dhT/pKTnWeP+aaiy/tXntIOHte6pUs07aVnNPzqO9T7nulalBzIbUKFZGfpaOrx0kMGryEAAMC5hrAaAACgBju6cJEWFdgTnny5SHNS7HE/SU7x0Ji6DBVdvrqlbVuiB8beo+GvrFdaWfsONULyvCfV72cTSg9T1ttLAAAA4FxBWA0AAFBTFWzRq//w0HejmB2aOXe3PY7T8pT0wYu6+tk1SrPnAAAAAKjZCKsBAABqqJylCzQrw54oQ/I7s7Uo255AMUcXTtHt7+63pwAAAADUZITVAAAANdJxzZnjYxuEgvWaufC4PXH2Gfr7qVrx79LDgr9O0Cu/H6PRvRMUYS/rydZ/TPd7qxQAAAAA/hd0ysEeBwAAQE3x3XT1/vWS0i0s2iSoxa4UJduTReoP0Xsf3aEeIfZ0ufZr5vhH9LyHLiMd739Bc8c2t6dcKrp8BSXP06ixs7XVnnQ34rlZmtzPnvAiJ3mJJk2YrkWp9owSKrKNORm7te7zNZq/Zr1W7XD7ECAqQT16ddfQIf10WdsERfi0r4/rqzdma1Gptt51NfTuMbqsvhnP09Fta/Tx4hVatGy3inL1oscbpMva1y0zkC+P9ZxWrNdXG3Zo3doSj9Gpk3oM7K5h3dqqYZQ9vzyp6zXtn2tKH4eNeus3d3RXQ2vC9bxW66u1O5Sc3Vzj//aYxjUpvk/SdqzWom0eLiLaopNG90iwJ1xaa9wjQ9TRnvIoN0tJmx2PucLxXLes19Zix0RddezVWontOqlP1+7q0Srax9cRAAAAZwJhNQAAQI2Tp0VP3KEHvrQni0Rr3F+fUeKMiXpqoz3LzdCn3tArg8PsqfKcXWG1JXmBRt0yS1s9XVSx/Th9MX24WtiTnuQkr9SUF2dp5nc+VKmHN9eIB27XEyM6Ka7MsNPbfmuuR999QaNPzNOk/52tr8qr/I5prnGPPKxHB5ddRV5ShZ6TwtRi4DV64r7rdFmLco4jb69X2zH6YuZ1itvoeF5Plnxezuc8voX3Y6l8ffXasgm6zJ4qJjdFi155UY/P3+/7hTVDwtTxyus08Y5ryn/OAAAAqHa0AQEAAKhpkj/VtFJBtUOLoRrdM0GjR3e3ZxS3aM5iHbXHz0kthmvilfZ4Sdt+VJI9WlqW1s14XL3HTvUx1HXI3a/5Lz2j3re/oa9O2PMqKGnBi7r6lz4E1UbGfs16YqIuf3iBknLteWWqxHNSnpKXztO9Y+/Xve/uqOSFKfO09YPH1X+Cj8/LT9K2zNbNV0/UA/MqEFQbBY7tXThb9762Rjn2LAAAAAQOYTUAAEANs+r9Tz1WGPe4ydn+IGLgcI2Lcc4rZuNcvfqdPX6OSkz0VuGdpTSPF6HM0ld//rVufmN35cLKPYt1723PaM4ee9pn+zXnX+sr/OHC0VWzNHzCPCWVFcgWpGj+E1V4TmafvPqkrn5hTcUD613z9MArlX3cStozT7c79sk6n0J8TxJ03619q9RmBQAAAP5BWA0AAFCTZK/UrPke+veGdNf4YXXt8U4aPbpkL18jS7PmraRC1KNM5XgIq5PefVr3LvSwv93EJdRVXLg94UnqFj3+P29oXUUqeqti22zd9qy3IDlLXz37mCZ9WfZz8sXR+VN0+7v77Skfnal9UOS45rw823PrF5eQMDVsWlcNPX3AYwy8TuPb2uMAAAAIKMJqAACAGiR53jwt8hC8xY0YrqFuF7/rOHKoetjjxXw5T7NKXfXu3JFy+Jg9VlKCEqyLGbrZNkv3vrrbnighoZMe/esUbVwyS2s+mqo1X8zSD4te0Gt3dFJDTz2qUxdr0gwv6/JBXPveevT3E/Tmm1O14K8TNPn+3uroLVx1OLrwNU3x0Lc8Z9XreqyM8D2iRVuNf2iCXps+RV9Mf9jxOIPUx9PnHratr76oKdvsicqyw+IWjsFZvdxc4/4yVSv+7Rzeu9VLNfzge4qWOT3cqT72zZZDKzXL47cJonXZ/Y9pxSLH67bkDa34wHHfzxzjy97Qmn8/rTcfGqI+Vo/qaI27YZDirPsAAAAg0AirAQAAaoqCLZr5lqdK1gSNG9nJHrclDNH4wfZ4Mfs17f0t9vg5xrH/5nsLats0KnFxxSzN/9cCecz124/RgtmPaXzPBEW4B9NRzXXZXY/ps5cHebxQY/I7s7XIY6uRskRr6B+maM30iRo/rK/6tKmrxJ59NWLsRM39ZIomX2lX05eSpVn/WFCijchuTfvrSi+tRaJ12UNPa827T+rR6/rqsvYJatG+u+Nx7tGbH03Xe7e2tpcrKUXT3qlctX7DftfptbffKAqLv/jgMY2zd1xEfF01rO8cEmKd80oJr1O0zOkhuni7jqQfPbbM0ZX36rWxndTQ7QMepzDF1W+tPtfdoTfffUNr3n5GE3vaNwEAACDgCKsBAABqiJylCzQrw55w13WobinVpiBMQ6/zXBGaNn9BJULTWq7guBY9O8Xz/nOI69FRifa4JWWJZi21x92FtNXTz1ynRE/V07a4nvfolVs9lCMXrNesz329mKFTn0de1CtXeiltDknQiD+8qMkD7emSNq7WklR73NjoeE5equo73v+kXruutZe+zNHqce/jem1YtD1dwpeLNKeCF0vs+Iun9d/nxuiyVqZ6OQAyMn3qtx3XKoGqagAAgBqEsBoAAKBG2K1pr623x4sbOnqIGtrjxfQcUlSpWkzBek2bV8Few7VVdpaSVs3TpPET9YDX9hcJGndN8cr0o6tWa509XszAoRpRRlsMl46jPLdhWfXdDnvMBy2u06MjvFVOu0RrxB3Xeazklnboq+/y7HFp6yovfaxjBunRG71deNIlWpdNHKfL7KnidmjVhtOPU66u4zT9Fm/BuJ81qOt536yarv5jn9Tz89Zr66Es5ZzxXtoAAACoDMJqAACAmuC7xZ6rYmMGadxAb9WprXXLTZ6vDLf1rQVadZYEdPN/O04XDvAyDL1Hwx+erfm7vIepDUfcoftK7KZ9SZ7D/LiDq/XUC9P1eHnD6+vlsdh4z37PrUU8aDG4tzra42Vq21ej29jjJSQdOmKP5Slpj+eq7jjTXqSMSvEiMd011EtLjFWbt9tj5Rs6ysuHK9WhbXdd5qW3d07yDs186UWNGnOPug5yHCtXT9AVtz+pSa/M06JtKQTYAAAANRBhNQAAQMDladG8JR6rYluMHlJm0Nhw2FAN9XR7hmlzUYFq2LNV+zF666Hupap80zI8V2GnbVujOfOX+DBs8RxK79qvJHu0PB3blFft7NJcHT1/JqGk3QfssSNKOWiPltCicXnV2y51leBlk7ztr9LMtp7B1h8hnTTx9319C8czjit51w7N/2C2HrhnorpecYdGvbRSybn27QAAAAg4wmoAAIBA2zFPz39pj5eQ/MbjniuKXcPQqVrkpUJ00WvzPF987hwR0fU6vfeXsvtP+10FqnUjogLUz7kMCXV9Dba9K3ZRyjMgrt8EvfVIJzWs6OMW5GnrvKm6YswzmrPHngcAAICAIqwGAAAIsFUfL/K5dUSFJC/SnO/s8XNJeHONeOhJLZ86Rj28tIioNm0aeekvXVrSXl/7ih9XipcLHMbFuC6KGC55CWsr0u4i5UjFLhBZUySOeEwr/v20nr6xrRIr+pqnbtHjv52lrbQFAQAACDjCagAAgEDKXqlZ831tsVBRWZr1oef2ImezuIFj9MR1bRVnT3uSmOil38XAe7Rx2Sz9UNnhzTFKtFdVnq2bdyjHHi9TgbnAoT1eQotmjeyxBCV6axXy9QYdtcfLtlvrNtqjJSS2bmaP1WDxrTX6gSe14LNZ2vjZVC346wRNvn+IRl/ZVolNo8u+4GPyAs1cZY8DAAAgYAirAQAAAmjrOx94bePhF0vnaeYOe7yWGvr7qVrx79LD3Ls8B85pn0/R45+X/QFAi04dPYfZSxd4vtBldfDxsY4u+FTzPR4j0erRPsEel/r07G6PlbBxkd7eZo+XIWfFp5rlse91tPp09bW/ds0QEVNXiT37asTYO/T0H57Ugg+ma+OSN7Ri+jiNOL3Litn6o6+V7gAAAKguhNUAAACBUrBFc+Z46e/gNyma9fEWe7x2MsFjw/qlh463/lqPtrcXKmHRn19Qmbu2a2+N8NguYr+e/+NsJflw0b2cXQs0c0VVquLNY81TUlkfVuyZp3te8vJpQ8zFGtrJHneI6NfP88U2HcfAtEen6qsMe9KTE2v0+AsrPVfhl3icM2bXfh/b42QpeY8P7UtCwtSw/XBNntjbnlHc6YtVAgAAIFAIqwEAAAIk7csFmuUpQAzprlcWeWgxUc4w9w7PJaNp82eXHdzWViHNNf73Y9TRU0BbsEOPP7agjLCzk+6/30vfjG3zNPzmZzTzu+Oe23Rk79eilx5R79tn6fnf/lqTqhJYb5ut4WM8PFbucW1dMFXDb5/ttZdyi9FD1Mf9uUf11fjrXD2sS0hdqXtv8/A4BXlK+nK6hl8/RfNT7XkldLxtePHH8bMWzb20GNnxqaYsLR5C5ySnlG5psm2ubr9lgrrePkUzV+1WWpkfNGRp0ZeeP7ypFa1OAAAAznJBpxzscQAAAJwxuzVl7OOa5iFNjbvuMa15qBKlrCkLdPP1s7TOnnTX4o6n9cVdre0pY79mjn9Ez3so2u14/wuaO7Zk24eKLl9ByfM0auxsbbUn3Y14bpYm97MnPEh693ENf3W3PVVcmdtW4HhOv3Q8p7JaZJhq3EaNdEGnZtKuHUpOz1RySp59oy2ktR5982mNb2VPF+N9v5USHq0WDcIdI7lKOZhVdj/r+n312nsTdFmUPe2SvV6P3/yi5ngJni1FjyOlHTmutLIqu9uP0YL/u06JJcNqr69Xcz367gsa7+tVJo0yXnsjrn13DW0bpuQtW7RulzT6r9P1RE/7RuVp0RN36IEv7UlLmOLatNZlnVqrY7d2auF8qkrZtVqLPl+vVcklXj9LtMZNday3qz0JAACAgKCyGgAAIBC+W+ylX3GCxo2sZM+FhCEaP9geLyF5zmKtKhZKhksVqpat6PJnTuLY+722A9n6j1c1c489UZKpzP7LRI2ob097UpCnowf3a9Xna7Rq1/HSQbVRsFvP3/64ZvrWs8K73CwlH3Q8RnlBtaI14pE7SwfVRlR3Pf03L9XmLkWPU05QbQLxv3gIqv2txSCNKwqfS0vbtl5z5pv9b/ZLlua7V0Ynf6ppxYJqI09pu3Zo/vzFev7PU/XAE87hqTcc6/AYVDv0vFH3E1QDAAAEHGE1AADAGZel+R8u8dwfuOtQ3eKlO0X5wjT0ukGeLxyYsUTTFri3VEhQosdKYG8quvyZ1Fzjn7nDc6sKEySbHtTeQtmY3pr81sMaV8Xn1rD3IF3W1J7wVaVC4GiNePpFTe7npd2H0eo6vTdzjHrYFcWVkuDYL/+coMs89vX2t7oa/WA5AbubtPkLtCjbOb7q/U+9VmT7LKGvXnt6iBrakwAAAAgcwmoAAIAzzerFa4+XMHR0FUOznkM0zksLhlXvLK56sFdTJQzRK7/vbk+UsGOe7p3huU2IJb67nnhzqt67v5MaVjRADqmry+5/Up+9OKTCFcgd735Yk6+sa0/5IKGTYztf1eSB5d8nos11eu/fT+rRfhVYvyVMiddN0BfvTdQIzy3Qq0er6/Tmyz7uw4L1mvW584OXHjfdqXHtw6zxymjYb5wWmHYqZySUBwAAQHkIqwEAAM6wVR8v8nzhv5hBGjew8sGbU2vdcpOX0uzkRZrznT1+Foq7coJeudJzxXHyv57WUxvtCU9C6qrH2Me04rMX9Nr9g9SnVdmvQ1yrthp9/0Qt+GyqXhvb1nM1e3lCEjTiD1O1Zuo4jegUrQh7dkmmZ/N9T72gjbMf07g2FTg+Ytpq/HNTtfHdx/TEjW2VWEYgGxHfWkPvuEdzP3lDCx7qW9Tn+UyK63mHFvz7aT3t2Favjx+ToD43TtDTw5whfESLvnpi+hva+NnTjtdtiIZ2qqu48gJvs44RY/Tau29oxXPDlRiA5woAAADPuMAiAAAA4ElBntJOZCo3N0Vbvs9UQofWahQertj4aEX4XEVdgQtT2o+XsnurkqPbqlOjOhV8LB9kZ+lodq5OHtmtJDV3PEaYwmPqKq4GBrY5J44rveC4dm5w7PtuzRUfXkcNY3wL63MyHPfNdYwc36/v9uSphfXaqcY+VwAAADgRVgMAAADVpgJhNQAAAHCOow0IAAAAAAAAACDgCKsBAAAAAAAAAAFHWA0AAAAAAAAACDjCagAAAAAAAABAwBFWAwAAAAAAAAACjrAaAAAAqDbhimhQVy2alh4SosLtZQAAAAAYQacc7HEAAAAAAAAAAAKCymoAAAAAAAAAQMARVgMAAAAAAAAAAo6wGgAAAAAAAAAQcITVAAAAAAAAAICAI6wGAAAAAAAAAAQcYTUAAAAAAAAAIOAIqwEAAAAAAAAAAUdYDQAAAAAAAAAIOMJqAAAAAAAAAEDAEVYDAAAAAAAAAAKOsBoAAAAAAAAAEHCE1QAAAAAAAACAgCOsBgAAAAAAAAAEHGE1AAAAAAAAACDgCKsBAAAAAAAAAAFHWA0AAAAAAAAACDjCagAAAAAAAABAwBFWAwAAAAAAAAACjrAaAAAAAAAAABBwhNUAAAAAAAAAgIAjrAYAAAAAAAAABBxhNQAAAAAAAAAg4AirAQAAAAAAAAABR1gNAAAAAAAAAAg4wmoAAAAAAAAAQMARVgMAAAAAAAAAAo6wGgAAAAAAAAAQcITVAAAAAAAAAICAI6wGAAAAAAAAAAQcYTUAAAAAAAAAIOAIqwEAAAAAAAAAAUdYDQAAAAAAAAAIOMJqAAAAAAAAAEDAEVYDAAAAAAAAAAKOsBoAAAAAAAAAEHCE1QAAAAAAAACAgCOsBgAAAAAAAAAEHGE1AAAAAAAAACDgCKsBAAAAAAAAAAFHWA0AAAAAAAAACDjCagAAAAAAAABAwBFWAwAAAAAAAAACjrAaAAAAAAAAABBwhNUAAAAAAAAAgIAjrAYAAAAAAAAABBxhNQAAAAAAAAAg4AirAQAAAAAAAAABR1gNAAAAAAAAAAg4wmoAAAAAAAAAQMARVgMAAAAAAAAAAo6wGgAAAAAAAAAQcITVAAAAAAAAAICAI6wGAAAAAAAAAARc0CkHe7zKdu3aZY8BgNSmTRt7rPpw3sHZgPcKAFQfzrEAqhvnGQDnouo69/k9rF7wfYg9BeBcNrxDwRn7pe1MPA5QXc7UMcx7BcC5iHMsgOrGeQbAuag6z0m0AQEAAAAAAAAABBxhNQAAAAAAAAAg4AirAQAAAAAAAAABR1gNAAAAAAAAAAg4wmoAAAAAAAAAQMARVgMAAAAAAAAAAo6wGgAAAAAAAAAQcITVAAAAAAAAAICAI6wGAAAAAAAAAAQcYTUAAAAAAAAAIOAIqwEAAAAAAAAAAUdYDQAAAAAAAAAIOMJqAAAAAAAAAEDAEVYDAAAAAAAAAAKOsBoAAAAAAAAAEHCE1QAAAAAAAACAgCOsBgAAAAAAAAAEHGE1AAAAAAAAACDgCKsBAAAAAAAAAAFHWA0AAAAAAAAACDjCagAAAAAAAABAwBFWAwAAAAAAAAACjrAaAPwsJ3mLFn25XltP2DMAAAAAAABQLsJqAPCn7JWadMszeuCJFzXqtje0zp4NAAAAADVdzonjOppqhizl2PMA4EwKOuVgj1fZrl27tOD7EHvKj3a+r1fmbHCONx6i2+8crDhr4ojWvT5Fyw9bEx6EKiK+kVp07qPePbsroU6oPR+W/JPKyslzjgdHKTqK/QP/Gd6hQG3atLGnqo857/j7cbbOmKhRb6Q4xqI17q/T9URP53zPjmvWhAl6aqNjtOs4rfhTtB67frq+KnBMxwzRe5/doR7WcoBn1XEMe1Jtj5M8T6PGztZWx+iI52Zpcj/n7JKS331EV7y63zHWV68tm6DLnLMBoFrV5nPsV38ep3sX2hM+KOscDKD61Prf5YwTWzTrlTc15fP9SjN/xxQJU1yb1hp9xwRNHJygCHsuAFTnOeksr6zOV86JA0pa8ZHee+UpzfoiiU8G3e3+t2a88qxzeG+Z0uzZwLmu48ihdsCcpVnzVpZ93tixWDNNUO0wdPQQNaw/SJNn3qP7RlynV6aPI6gGAAAAUHMlL9G9tz2jpxaWDKqNPKXt2qGZT0zVHFPLYzNFCBcOGOcYpuore16VmOIHa33jNGmFPQ/AOeusCqvjzu+ljt1dQye1SIhVRNEzzFfqmhl6+5MtBNYAypYwRPcNi3aOf7mo2C9mxeVp0b/mKdmMxgzSuIFh1ty4NoM08ZExGtrCOQ0AAFBRfSZO1Yp/uw/3aKh9mwbfU+K2qXqit30bAPjM8ffMa9P1VapjNCRBo596QRuXzNIPy8zwhtbMflJP39hWLa4cqtEJznsAQHU7q9qAtBv9jIZd4Bwvkn9MWxf8n77Ymm7PkBJHPqHhHSPtKc+Sv3hWX2x3jide/bC6nvxSy1evVfKRNho66Sa1dt4k5R5R0jef6bvNB3QsPV35EbGKb9JJPQYNVsfGsfZCTsXWOexXuuDEx1q2aq91P9WJVb1WAzTgiv5qEuVcppjCdKVsXqU169cq5Vi20k5FKS62nlp0HqDeF3VSXIkOHmVvf3clT/tISbmO9WTnOxcKDlV0bJTMaur3+aVG9KjnnA9UUm1uA2LZMVtXjHcG0S3ueFpf3FX0rj8tZYFuvn6W1Ze6x0NT9d51dR1jx/XVG7O16IhjtMMQPT2i5P3ylLzqU82av0aLdhyXohLUY+AgjR/VTx3ru8Lt3Zr/0mKtKjBV3vdoXHt7tkv2Fs18ZaWSFKY+P79DI1rY811S1mjK6+uVEtJW4x8apER7NmqmWv/VUT+0AUnbsVJz/rNCi5btlvXZUP3W6tO7k0ZcOUR9WpX40KfguLYuXKyZn6/RuuRMa9mhlw3S6Ot6K7HYv5+n34stBo7RfR2Oa86ceZq/dIc6/mqqHiXUAc4Jtf4cW8waTRowRfPN6LCJ+uH3xU9kSQuna6b5kymqk+57oK9K/npgJH/+hqZ9lyc1661Hb+mu3FWz9Zeljt9HGvXWb25trSOO8+u0j5doa6oU0aKthl55ncYPa604j3/i+fI7DXD2q93nmfV6fNCLmmMqqj2cV0rZsViPz93t+N1ttRZty3LMSFCfEZ2c5xtzHrmjuxqaccf54ei2Nfp48Wp9tXaHkrMds1zniNGD1DHeWshht+a8sFjrMnZr0ZeO9TrmtOg9SH2amNvqaujdY3RZfcdo6npN++ca62+zHqPu0ei25nY3ZdxuLn4/x3FuW+T4HbBoO3p119Ahg3RZ+7q0NgEqqTrPfWf/BRZD66njyN9oWDt72iHpm6/LbXmRn52utBPO4YdPX9Sb875U0oF05djZrpFzYLFm/22KFqz4QYccy+UUOv6Gdtwv9cdV+uL1ZzVrcfG2I8XX+RfNXril6H456ek6tHmBZr/yrL7YedK+hy17i76Y9qzeW+DcBitgPun4mbJXW7+cpTenzdDWn+xlbWVvf74yzW2uoNoozFeWvXxmrt3HGjiXtR2i8V2do8lznMFxSVs/XuS8gGJId8cfciaoNjKVtHSJ5sx3DBtKlGRnbNHzt9+jKx6erZlLdyv54HEl79qh+W9M16if3a9755sgz2jt+LVvtbWOp94p3YYkZ8UCPW/WP3+xpizcbc89bevHszTN3H4i3OMfqkDNkaVVUyaq9/ipev6D9Vpn3hNm2LJec96Ypdtvn6JF5o8Klz2Lde+YCRr17DzNX7O/aNmZr07R8Ksn6qnvzB9NLqffi/MXznK8xx7X42+s0apdx5WSay8CAGeRxFbRWmX+/f/AcU790sPv8wVbNPOlxdZ5MSmmtVX8c/LHNc7fWRbM02O3O8+vi7Y4z8VJa9Zo2rOPq/eYKZpf8ltmPv9OA6DWOJFZfmvQI9utc4YzqDZSnOcdMzjOBc4kI0Wzfn2P+t1jfr9z/u5V/BwxQY+vKHF/O6g2ktfY65u/RkmuxbJ2a5H9OKtMUVBJXm5Pmv+MLh/7jJ6yfwcs2o4PZuuBe57UtB32ggBqlLM/rLZEqt3FfU5/Ynb4B5liLF9lmcrnktJXacHbX+qQnfdGt+ql/tfepMv6Xaj6dpVz6rczNHeNpzOpY52ZjtN4cKjqn99JHds1U4SrMrowXVs/+qfWHXNNH9Cqt2apqDDc030yk/TFO+9rd4mM26X09tfTeaZVyvlu1dORzZRot1BJTPBU2g2ca+pq9OjuztGMJZoy/7hz3MXxB98cuz9I3IjhGlru22a/Zv7mGc3c5fjjMby5xj30mBaYr+2+OVH39TNBd5a+euFJPb7K+cdln8EXO79BsnSFvnIP63Rcc+aut8dNkL7EGZgXcfyi9rlzu0YM60ulAGq2LR/ooQ+dx2viiHF6803nV9kX/PUePTqsuTreOub0eyt7vR7/nzf0lVk8oZPue+pJfeFY9ovp92hcmzDHe9Lxh9GDT2um1ZenuKTPV2prQZha9O6t0SMGqU8j+wYAOJu0v6bog/ZFcxbrqHO0SM7SBZqV4Rgp9iG77eAOfbVHathziJ54aoJecQxPXNfc+XtEyhpNuvsNrSv64L5iv9MAqMk66bKB9uiq6ep/+xTNXLhFSRle3r/thjrPD1e6ziFtNd4+Z7xyX285O4UkaNiVrR3nhwT1uXGcXnnR8Tvbm4/pFfONz3DHzQWOv2f+/Lr9N459/4m9i4psevzcXt9TP9dlDeyZlZG6RM+/tMU6FzbsY64nNMX6PfOL6Q/riRvbKtF8c6RkhTaAGuEcCasdGjVzqzA8qZwKVVVFKnH4RN3/yDN64LfOFiDJKxcpudB5a8JlE3XX2OvVo3M3dR1wu8bdM1wt7D2bsmJ50XLFRF6oK+57SuNuGqcrrv+V7v3VL9WjsX1b4QGtWZ1kjWZt+FhrXMF1nW4a/oD7fcapXR37tswN+mrNAXuipJLb30wdr7peV1zU0r7dIb6T+pt5jqF3m+LtS4BzVcTA4RpnvnbmsO79xVabA5ejC2Y7/+Bz/DI2bmQna15Zcr58R89vM2MJum/qC44/ADspsX5dNWzTWxOfe1GvXGl6ZGdpzr/sPy579tWIGMfPgvWav8Ltl8WUlZpvX9BR5iu5GSs0/zvnpGXjEs0yYV3MII3u45wF1FTJW3bYYYrjffDQcPVp43hPON4XiT0HafzvX9Bct/Y7W995Q3OsfordNfmtxzRxcFu1cCzbov0gPTHzaU00f2wU7Na097dYyxcXrRFPT9EXL0/U0494+OooAJwV3D5o37hIbxerGDStkJwfdnv7kL3hsIn67K93aNzgvhrqGMY99IKW/85eX+piPW9/cF/h32kA1GBhGvrIxKJ+1Dm71uj5Pz+j4VffoQuvnqCbH5+tOduOn/6mZ0Jb6/xwWVEQkaA+9jljaG/7Ay6HhsMf18bPpujNBxznmz6O39nadNLQ6+7RghcHOQtyMlZqkdXpta46mvte4vy2h9Giq72+wd1LtHiroO1b9JX1IVtz3fKrMRraPsH6PbNF++4a98CTWvAHe1sA1DjnTlhdBRE9xml410YKKdpbSUr63lXGHKt64QeVtG3D6eFgrBKsHksOJ39Qsofi6oRLr1ZH90w4sqX6D+hmT5h/JH5QitK1e9tee47UpP/w4ifryE668ooL7QkpbecPHr+2U3r7AfgkpJPuv9NOtZIXaU5RKLxbb79j/wU40LdP5FetsauhHX/IXdbouI6mug+56jnsYmd/t42rtcQEcurk+IPT+Vuj+Uqb64+9otYjg+/RKyOcfwzO//J0OLdq8QrrPBA3rK/6VMMlBAB/atG+rf1HwhpNGv+ipsxbaX1FM63YtwmMFK1aZX8HfWBvXZpb4j10oo5GXON8I6aZXtbWmJu212jiwBJVhABwFrI+aDcfdpuv4X/s9uHdjsWaaX3Y3VYTb/P0IXtb/eb+3qWCm7jhY3RfU+f4OsfvMiawqvjvNABqtJjeenr2G1rw4hiN6BR9+puZGce1buk8PX7PBPWesED/397/wGlV1vnj/zv+g4CCjqkgGggqqIiFsWCIIVCsGLZoGq0afbQ1vha7mrra+mH9pWtqu7gulrqSVmSlDyExCsxVCVmUFP9BKMIHDEQZBGGAARzod+77PjNzzzCjA4JnwOfz8bgfXPe5z7nPdQ9zX3Od17nOdZbUMS1ivZo2j5a5UdTlm2u2Ec3aROV9Grfuyvvtjh49ojB2Z2VM+Mfxcd0DT8ZTi0pjTX2jxoFG4+MTX65+Mz/ZfkGrQsPZQJ2PPCotVdoSW6qm3CiL1x77VUyfWvMxv2qQc1msz4++rKnDwXVcg5wsq7rBbm7u6CiPrUVTe7Rvt/OI56aHd6ne5u3VUVd/cOf6Aw11yLChMTQf+m6OyVPT+aOff6wwejnaxOi/a+AZ+cqrOZZOj/O/NDYG1H58tzKQ3hwb0rnZeg4cULgi5PmnY0Y+pyue4mNQDB0yIL/vDdOmF+b13b4geT23cUmM/tsPHu0Ne9z7HHRsKKtj/q2TzovbRhRC5K1LX4gf/XBiXHRRckA0dHScdMH4+MGsNKDOfYEq3/uJe3b+/iSPwRPSE0gb65hvsWsn87cDHw9Nq092V/UPEnMfmVk4FjpjaNUIyppKoiS9mqymo6NnZZdi1buRb5V3o08DNHJNm0e3fiPjth/fEy89eV/Mu//auO1bfaNn/uRX0k97aXJcet/O98qpV+m8uOGSi+PYoZfUbB9yoXe6yl7XcUhcf/nR6XRGi+OhO++JSy8ZFwPyo8aviiunLv7gObqBTHxMwuot8dqzc6svXfnksdG58qqVBmjaonJy6ErNolnVT65VlBxXmOu5vseRdcyqsXljHfNgbyqrbixbtU7euXnEJ9Lnie3bim6IWOmd1YVOY07Sw6wrNNu5/kCDte4fo/MjmBNPzIyHSt+LmVOfLHxXOycHfKfkX2m4w/tWzQVZ96NobraqmzwujmlPv1sdkldO8XHSoBidS+ByU4XMfa96LsrOA2KoaQ74qLQ5oOpvz/xF9R3EvBdLlqfzvh9+UPVJ1mgTp181MV76zfi441tDYtTAo6NzSfK3L7F1xeKYdN21O895etLwOr43xY+h4VQN8HHW86vnFU60J/2DSTOStrd8TkyelkuN28TokfXdzyLpR9R5wrE0VlSO+Gl3QHJ8UmRX+jTAvqNp82jftVeMuGBcTHn0xrgsPeO/4ukXigYAvo/tC+KG/zMhJi9K+nAl3WPMFUXtQtHc1Ltra3kdI6PrGqyQ6HbejfHSzFvi/itGxqgzu0e3w9OR4xtXxrQfjo+Lfu1msNAY7f9hdcW6WPjIf8SM19LniW5/87mGjYSsV7c4ukdazM1/feBnYlA633PV4/QhcdrQQrln5VzURVY888corTGXda1AvcsRycF8h+jcrfomiEueeSLWFm+TuxnjS/mJnvJadu4adQ6IAD6UfmcPTTtVi+POW26NHz2RfxJ9vjIkehaKH6hX7zQ9XvVmbOhaOQ9bXY/iudkOimFDCtvNf+SxmPzEs/lOWOdzhqRTfBwdQ88sxH4z//BYTHuicFnurtQLPrSO3aNP5UHMlKkxs46riWL51Jg0q1Bs/9mTd/r9bJm8x9ALLo4bb7wxHn/4vnj10bGFOdtjc8ycm/sD3in6nJSeNFpaGtG3ru9O5aN74fJzgI+rohPtuXtuPDVjZszMBdHve5J9XtKPqGMY9PInY1p+fupk816F9nX3+jRAY7W1tDQ21Hd1XNNO0a1rWm6oBUl7kr/k+6C47KbxcfXIonahaG7qXdI5qUdanPtiUbiTWjhrXv1BeutO0W/kuXHj/x0f0399T7z0eHqvk8TCpxeaWx8aof0qrH7ruYfj8d9XPibHlHv/Le7+91vj8YXVo5jbnDA6Bh/3YUcaN4tu/U6ramQ3PPPjuO+BR+KldM7ql/54f0ye+G/x8+kLqsPn2tbNjl/+6Mcxe36yzStPxIx7byoK1FvFSad+Jn/vtJK+Z0S3yv+lt5+IyfdOjvmvpNv8JPlslds0OSL6nlrZfDdQ23bVfyje/mPMfiZX/9nx0ut1jPqGj7PuI+PqMwrFNXMXFG602LZ/XFb7Tvrv45AzR8ao/NmklTHh2zfFpOdLq0Ywbd24LGbeMi4GfH/eTiMCDhk4oDDX2uKpcUN+VFRJjDij+qZzPc8eGn1yhVmT47p8iN49RuTvxA8flaPja19Ne/wb58Xl/zAxHlqUHPSU5363340lcx+MS789Nb1Baa0bkpbPiSsvmRCT5i6LDUU3Pi4e3VdySOH3uc+oc6Jn7g9juo+ZSzdX/Y3dWrogJn13bJzzgNExADlVJ9pXTI1Lf1iYJumDTmbP/P61SV+isj1+L9Y8n2xb2X437R6XnVPof+xunwZojJbFj749LvqedVXcMHVBLCmez3nb5lgyfULcnA44OKRPr6pR0a3apoMIIncz+MKJrq0b075Zi+ZpzrAtVqwuOgm2/d2Yed9va9y0vkrRlXr/+0TafiT7r+4fdo9+6cm2DVMnxOXT07aqvDTmPnBTXPKzquvNiySf7Tvj4wfTF8ea4vuhFAfzuZvDpkWg8fjEXxNp+UNbunRpTP9zfrjfnvX6r+KOh9IRxJ8cEhd9/Yy0IVsd838yIWa/nX/yAZpFx74XxajB3eq59K2mZY9eG9NeKZR7jLophh1TKBdb+8K9MeX3S6KOMQipZtHt7GtjeM/CBXPF75k/TVBjZHW1jp/+RowaUl3PrcsfiYd+NbfmqOoaWiV1vCqpY/WFeQ2pf/7nd1/y83srfVqpxs8Yds/w47dH1667ehp+1+XanY9iP/H8PdH3O+n0H4nOF98Yj3+jOjSutjImjbkqfpA7Lhw2Ll79Xt/C4pzlU+Ocix6MhfWNXMiNPrhnYow7Ln2a917MvP7iuDwdzR0njY6nJw4v6lS9G5PHjo0b8jdNSgy8JF66cVCD2jkah4/qd3jv7mdzPPX978SlM+r/i5i723yfy2+MX57XKX0esfDecXHOfXUdXKRanBx3/Oa7MTSdL3HD0xPji9fMqX8ETNNecdtvro0RB+aevM93EfjY2D/a2Erz4srPTYhpueIHtmu1+gdtB8X9j16y082XVzxwVQy+Mz3Rl3utzj5Kmxh6w61xxxlFJ8N3q08D+6d9up15a3qcf/7kmF/vdzlV0j/u/unYOD3tk0XpY3HRuffF3BrblcRlkybEuO5JH+ySpA+WvyojN6XI0dHv4M3x/J9XFkLjdJsRN0+O2wYUyrk266HvjI3rqm5oX1DjmOul+2LA2Mfq7gd2bBOHrN2cf63yfbc+cWucdH16Q9i6NE3q++Okvtop2C17s+3bz6cBaRYtDzwiug34cpx/+fUxuoFBdUN1PPkbcfE3vxJ9PtUh37cr1vKwXnH6175bFVTX1uML/xCn9ai5XdMOXaLPyO/G+UVBdU7Lo86O0Zd/I04/4dBoWeN/rFm0/1S/GP7Na2sE1Q13aPQ5v456bFsXa4vPPAIRpwwpzA+d1z3GnF1XUP0BjhoZU35zbVw/rFO0r9FoJJ24XoPijgfq6iw1j9PPODktR/T7Qv9aZ/8PilHnVL8+9MwBgmoy0CZO/96d8fgNg6LPgYU5p4u1P65vXD9xQo2gOqfnqHFx43ndo1vtbZo2j57DRscvH64OqnPaDxgb//PA2BjTt6Tm73nupkADz41fVgXVAB93B8Xob1TfBLrzqMopxOrTP+74+dgYfVzN9jjffv/49ppBdc5u9WmARuew4fHL390Sd1x8cp19uGhREv3OGxuP/7IoqM4pGRJ3TDw3Ti++YWuLiNIVuXuUdIox/zE+rh6Y66+9FxuWLo6Z81ZG2UEnx9UTL4kRhbVrSY5pbky2qXGFaFKf1W9Wh9MnXRy/+/G5MfSo4no2j859k7r896XxN+mSSi0HXBx3f6tv9Envh1It3ebnt2qnoJHaN0ZW7yO2l5fF1h3No2XrVtG0jtMAdY523lERW8vLk/ayXbRMGveGqNrPAcl+0mUf2m7UA97Pfjeyei/ITZFQtq1FtOuY3uiDj6V9ejROfco3x5ry3LWZye/3gcnvd0P+WG1PDmbWb4ptLQ6IQ9rWcbBUh63rk+9QJOvXdXAFkNgv29iGqroqrHtc//D4GF0cKqWqR1b3j7v/ODZOzy3clrThG6Ph7XdCn4aPs/2qncl//9O5NxraJ8v1+7Y1r6c/lvTv1m6KaH1QtG/oHPb5PuF70fL92qBdbqcK9djWVL8R9pS92Sbt5yOrP1pNW7eLNrkAeVd+qk2aRcsDdi0grtpP+nyP2I16AB9Oy7YHxSEO6tgftW6T/G6nv98N/WOVu/N8bpsGBtU5LQ9M1nfAAVCw4smYMHVxrNkWsXXtnLjyXwvTl7Uf9rcxqo6gul4tcm34LrTfCX0a2E/kv/+57/Mu9Mly/b56+2OF/l2Dg+qcfJ/wA9qgXW6n0n6mfiPsE4TVAAAA+7TNMe1H98SPfjg+BgweHSd9aWJMW5ss7tg/bhvXV4gMAOwzhNUfoWat20X7AwuPA5qlCwEAAD6U5tHnzCHRr2ou13Tu6P+uNc9sba0Pis6H5x4HCLQBgEbBnNXAXmHOamiY/WqeQ4BGRhsL7G3aGeDjaG+2SUZWAwAAAACQOWE1AAAAAACZE1YDAAAAAJA5YTUAAAAAAJkTVgMAAAAAkDlhNQAAAAAAmRNWAwAAAACQOWE1AAAAAACZE1YDAAAAAJA5YTUAAAAAAJkTVgMAAAAAkDlhNQAAAAAAmRNWAwAAAACQOWE1AAAAAACZE1YDAAAAAJA5YTUAAAAAAJkTVgMAAAAAkDlhNQAAAAAAmRNWAwAAAACQOWE1AAAAAACZ+8RfE2n5Q1u6dGlaAojo2rVrWtp7tDvsD3xXAPYebSywt2lngI+jvdX27dGwGgAAAAAAdodpQAAAAAAAyJywGgAAAACAzAmrAQAAAADInLAaAAAAAIDMCasBAAAAAMicsBoAAAAAgMwJqwEAAAAAyJywGgAAAACAzAmrAQAAAADInLAaAAAAAIDMCasBAAAAAMicsBoAAAAAgMwJqwEAAAAAyJywGgAAAACAzAmrAQAAAADInLAaAAAAAIDMCasBAAAAAMicsBoAAAAAgMwJqwEAAAAAyJywGgAAAACAzAmrAQAAAADInLAaAAAAAIDMCasBAAAAAMicsBoAAAAAgMx94q+JtPyhLV26NC0BRHTt2jUt7T3aHfYHvisAe482FtjbtDPAx9Heavv2eFg9/c9N02fAx9nw47d/ZJ22j2I/sLd8VL/DvivAx5E2FtjbtDPAx9HebJNMAwIAAAAAQOaE1QAAAAAAZE5YDQAAAABA5oTVAAAAAABkTlgNAAAAAEDmhNUAAAAAAGROWA0AAAAAQOaE1QAAAAAAZE5YDQAAAABA5oTVAAAAAABkTlgNAAAAAEDmhNUAAAAAAGROWA0AAAAAQOaE1QAAAAAAZE5YDQAAAABA5oTVAAAAAABkTlgNAAAAAEDmhNUAAAAAAGROWA0AAAAAQOaE1QAAAAAAZE5YDQAAAABA5oTVAAAAAABkTlgNsIdtXbEgZj7xQixcny4A9l/b342Fc+fEzOdLY2u6qLHSNgF7zD7U9gEA+5Z9M6zetiU2bypLHlti+4502QeqiK35bZLHlop0WQPsqN5u67Z0WQNs35LuK1fHdNkH2s19AY1I+Zy48ms3xeXX3xrnXHhfzE8Xw/5uzax74vwvXxzHfm50HDvo4hh+3ZOxIn2thnn3xeDzxiaPm2LyW+myRuGF+EG+XmPj0qml6bIPtvC+8XHOdyfG5d8ZF5dPfzddunetmHpT+jO8L+amyz6QtgnYg3a37atqv777WN1/I4BG4r3YsPbdWJN7rH8vXbaP+Ej7mqUx+bu73n/cHdpPPk72qbB665uzY8Z918cd/35D3HvHvyWPG+LO266PX854MTbUlz/vWBdLHv9x3J+sd3d+m+Qx4fq48677Y/6KsnSlOmx5I156dELcXbTd3f9+bdx938OxZF39Yffm1x6JKXcl7z8h3Ve+jrfG9GeWxNb6gvXd3Bewdyy8d1whcPvcJXHD8+nCer0bk8fm1k0eY6fHmvJt1SOMnHTiY2LDH26NAdc9GfNL04OZ7e/FkqYtoqTwrKZtm2LFqnfzj62N6k/ce1Ga1qs0+R431NbNm9JSUm7w2ekPqbxQzxWrNjV8RKO2CfYT78XM69N+R4P6KXvHbrd9le3XO9XbA43H1uVz4gf/NC76Dro4+n5pbAzIPc66OI4dfEmc//3pMX9fuDrrI+1rJv2rdwr72pX+427RfvIxss+E1Vtf/1X8/KfT47W3arU2OyqidP6v4v6fPBIrtqTLKu1YHfN/emtMn/fGTmH29nWvxuyf/0dMe2F1uqTIlgUx454fx1OvrN4pYN761p9i+j3/EU8tr72ziLXP/Ffc+/DcWFE7YK5YF0ueuDd+/tDcWFs7sN7NfQF7T8+zh0affGlzTJ465/3DoMWPxaSXCsWho4bEIR0HxW2TLonLRoyMO+4Znb4P7M9WxkO/eKFQPG5kTJk5OV6deUtM+UbfaFlYul/r862b4v5vDYkxV1wbdww/KF3aCGmbYP9QmvQ7nkjLuX7KvdNjTfrso7TPtH21rZga5+SD/tFx5dPpMiCxOebecVX0/drEmDSvNDbUPgm1bXPMnzE5zv/SuLjh+c3pQoC9Y98Iq8vmxvSHX0yaz1S7LtHj5M9Ez55dok3lJ3gnWecPC2pMufHW4z+O2VWXfTSLjj2SbZLtupU0S5dtiWW//0XMX5c+zSuLhVMmx2uVJ6uatIvOPXPb9YrO7dJlO9bFS1N+E8uKT5yteCSmPPFm+iSiacmx+X317HFoNE2XbV76SMycVxyO7+a+gL2rZEhcNqxNofzEzHio3iu63ouZP5tauAyr7aAYPbB5fmn7roNi3FXnxtDOheewf3szFi4ulIZ+ZWT0bJ0UWneKnkd9TH7/m5ZEvwsujqtH9or2lX/wGyltE+z75k+eUpjGp0XzwgnBl2bGz9M2+CO1D7V9wAd5L5764Xfjol+vLAzSadEpRv/z+Hj8N/fES3+8L+b95sa4+1t9o1uL5LXtpTF//uqGX9kFsBs+8ddEWv7Qli5dGtP/vOd7Kytm3BBT5qejiz95Roy+aEh0TEPq/IjrhyqD7A7R9+vfjX6fTIpls+PBidOjkFW3ih5fviqG9WiVf1YYcT2hOsg+7ivxrZG9C6Hy8ofj7gf+lDa+h0a/S8ZF34PzT9JR0NXhcvsB/19c9LkjklJZvPTzf4un0omDWvYcHRed3atqRFluxPXkyiC7ybExfNxFhYZ+t/YF+4bhx2+Prl27ps/2nly7s1f2s/jBGDymEER3vvjGePwbRxeWFyudHud/eXL+oLHPFRPjlyNzI4vejafuezBm5s5LHT8kbhxRe7v3YsXc38bkafNi5uJ3I1qXRJ+Bg2LMOQOiZ8fKAGlZTPvhYzF3e26U9yUx+rh0caXyBTHpjjmxJJpHv69eHCM6p8srlc6LCT95IUqbdo8xVwyKbuliGqe99jtcy57fT+XvemnMnbag8F3pOyj6HVZ4tc85l8So7oVyDU9PjGOvmZMUOsXVD9wYQ1f8Nn706zkxd0XyB6/j0TH09EEx+u/6Rufc38k6bF27OKZN+W1Mm7U4VpQnf3M7d4+hZ46MMcOOrjcwqXubv42vndk9Dqnaz7y48nMTYlpS6vmtW+KXn3szJv/it/HQn3I3DzsgOn+mf4z56t/G6bWD3sWPxXVTliWFg2Lo/zk3Tu9YWFypYftO5aZPmZfss7J9SN6z5+f6xqizk/0Whf8rHrgqBt+5Min1j7ufHB0lMx6LHz3yZCxcmyxKfoYjzj63jp/HB7RN9e37nDo+M+xD9t02tg7lc+LyL06MmUn/YOgNt0S/h66KG3JXd50xNl66oX/9V7OUr4ynpj4WDz01r6qdyLW1o0b2jW65E4w1vBdrFj0dP//VkzFzQdr+9eobI74yJEYcd1D1Pj6o7Vs+Lyb/qrINzbUnA2L06CHRecZ1hfar+7nx+KSRUbML05A+Uqpq/0fH6KsGRftku6q/Jcl2/b7wt3FZjb8ly+KhWx6L+RuXxcwnlsWGZEn136y6PwM01D7fzrx0XwwY+1jhKo3jRsb0iecW8ora1s+LSbOOiDEjOqULUvW0MXX159bMfTD+Y1by/T60b/zj3x8dqxvUh6nUwPapRl/zlhiTNjQLp90Tk/+cFHL7vvjkOKSwuMr7vp72kyYV91m/MDy+MfygeOQfroofLC70H6dcUOtns/3dWJh8xkl/mBfzi/q6dbe/BbvXfsJHb2+2fftAWL0knppwb7yUZtXdzr4hhvesHBmdUzMoLjljXJz/2UNj8ws/jnt//0Zh4YGnxfmXDa85d2ZxUNykd4y48itxdJOItx67IR58Lt1Zjy/Ht778maqR0Tmb5yfvOyN9308OiYu+fka03zQ3ptzxSDrJfbvoe/E/Vx2s5+1IPsN/Vn+GHqNuimHH7Oa+Cs+g0dvnw+r8XNRjCweBbQfF/Y9eEv1qNW+5ua3Pua80ounJccfvvhtD8x2OlTFpTKHDEsPGxavf65tbWLBxQfxg7K0xaWldNylpE6dfNT7uTjt/c394SVw0dXOdB6Bb/3BrnPSvhWkX6grSq+r1QQevNAr77gFO0e96HUbcPDluG5A+KVZ1AJF0vo/bFgsX1XEpaYuj47L/vC7G9UqvcMhLDhIeGB/n3Lms8Le7tpJeceN/XBujjkqf522O+ffeGBfdV982feO2u8bFiHwHoTqsbl9yUGwtfbeObdokn+v25HMV1aueA6Jd23ei9Mm48pv3xLQ6r+RoHn0uvi7u/kb3fD+gOqxuE4eUbI41dW1z3Lkx/ccjo1tVu/U+bVNy8Hnd1yfUcxVJ8+h23nfjl5f30gdhn7TvtrE7WzN1fAz4YfIlTvslfWYl/YHrc/2B7nH9w+NjdI2DnYI1f5gQX/r+vFhT17zStdvajYtjwtU3xo9eqvtmaoeceUn85nuD4pBcu/I+bd9Tt3w3Lp2WO+lVS9ODok/3iPmLktdqhy270EfKK9p/n5NWx/y66tyxf9w9eWyc3jb3pLqN31ntzwC7Zt9uZ3Lz4F8cl+enF6q/LanPhlkT44vXz6mnjekUY24dH1efUt1vqurDHH509KlYFvMb1IdJ7IH26anvj45LZySFesLeel/fmPSTLqynn1RydPRstiwWrqojrF7+WFz6j/fFU3Vt17QkRv/7TXF90c9mt9tPyMjebPsa/zQg61fFqjTPzY0+Pvzw4qA6p10cfmTlnBnJsV5poSVY/VYa8uYcedTON3k6vEv1l3vHqliXv1HAuli1smpnUdKpS43wOKdNsl3VwdrbqyN3AjDeXl50N9aucVhxUJ3T5Kjc7qqseyc3rGk39wV8RA6KUaNOLhQ3PhkTancati+Ih9IeS/sRw9Og+v2sjEn/eFPhICx3ad0V18b030yMp+8fF5cNOCh5Pdc5GR/XzS10wPqdcWrh+z/r6XiqPL8o9W48NCWdHzix4qEnC5cDV1kWM/9QqNeIYYJq9qZD4/TLxsYdNwyvmv+485mjk+e5ZWNjTI90Yb3ezQfVLbv2jau/V9jmtot7FQ4yti2LH429pcZBwZppN8bwNKiuc5vSBXHdtyfGUxvzq+et+PWNcX4aFte9TXLwMWFOfoRdsQ25oDr5no741iX59a8/r3th/eR7Ou26iTGzxneybru07/IX4rr/kwbVycFIv/Mqf46jY3TX3GjC92L+fRNj0k4nBgpB9SGnDInrc+t/79wYkV8/sejBuDTZ/wdK2rIbKg/A6tn3kl/fFBc9kAvHgcwk39U77yo0Ap1HDcmfQG85cHiMzgexi2NSfpRxTVvnTowv/WsaVJfkrrYqtEN35K66yo12zLW1358SC/Nr5/op49MgqHl0G3Zu3JZvCy5J+ym54Pu++Ncn3n+u2iUP3FgVtOzU9iXtfj5o2cmu9ZFqWpkPqqv3NTrGnFKob6ydE5feUnnvkeTz5z7PuL5Vx4B9vlqo2x03fDVOr7y6FT52FsRTs9LiwEExaheC6tyI7C9elwbVdbYxyXf7n26MScvza9e0qhBUN6wPs2fap92yPbfvyqC6jn2XFoLqneT6dt9Og+qSXnHZDblpVSbG4/dcUuhfbS+NybmfTXWQtJvtJ+yfGn9YvaO4U1IS7Q9Mi0VatipKidasKxz4Fd3jsOPBdbS4LVoXhcOrY21+3upkX0XjzDt0ODQtFWnZuij8KS2E3MU3RizpWMfIo2bRoujyl9J1uZ3t5r6Aj0z+IDC9JHT+rx5LD+YK1kx/MCbnQ7GSGH12r/yy97P1iV/EDxblSiVx2cRb4vqRvaJbx4PikKQjMu7mW+OOM3Nn1TfHQz9LL8E7pX+MyB2Abn8hpj1d1A6Wzolp6Q0d843Yxqdj2vOFp3kvPRmTc52etklns19hEewdSYe9b/8YekaPqgP/9j16J89zy/pHz4Yc7Bx3bkyZNC7GDCtsM+Ib18b/TBxSeL/ti+MHP12QXy0f0tyZJrV1bPP0/SOjZ+61tXPihl+lBzfJNpN+kpbr3ObiGPOta2P2Df13/rvdtm/c8Ztb4rYLBuXXH335+Pjd99KTV8l3cua8QrFeu7jvNTOmxkP5M9JtYsSNt8b9lw/Przv0jOFx/f13xt0XD4k7Hrg1xtUxrUrPb94ST99+cYzOrT9sZNw2aXxclv6HrJg1L5YUivVaMy1py95n34W2KWLhXb9oUEgP7B1bZ01P+x3dY8zZ6RVVTXvFqDRZWvGLB2t9R99N+hRzCn2K3Ajjn46Pq0cW2qGhIy+J6b8ZF5edNzYev390of18fnr8KN9PyY0OvDGmf29kjMi3BYOSfsrEmH7VkLh64oSqNqFO5XNiwl3v1/albXUtu9xHqqX9meNi9v2V+xoeV99+a9w2MH3xiWfjqfyIz4OiZ+7zfPboqja/80mFug094+R6L8eH/d5bb8bCdFR0zxO678JAl3dj8l3pd7KeNqZwLLMsfnBv3Tesb3AfZk+0T7tp66zK9qmefX+z1rQfqYW/uK/Qt2t6ctz202tj3Bndo3PSrnU+blBcP+nGQp8u+dn86FdpX3c320/YXzX+sBogK8lB4Le+nqZDK2bGQ1Wh8LL4+S/S4GzgyBhTR4BU29x56Wjo5MDr9EPfjTVrix/b4pRhpxbmRXvp2XgyHxxVH4DOnPZk1cHZwkdmFkZSn3FJ3DGicPA27Ym0k5OY+9jT+RN27ZPOTe1pS6BxaROjL691iWeiZa/RMS4NGTY880LhJNG8J9OQJtnmsp23iaOS72G6TdXBzQdukxzYXFD3jcHaDxsSQ/OjFau1H9A3hqblJSs/YJTxLu27NB75bdqenHROXFM8xUhemzj9GxfXc1PE7jF6eK2DpKZHJwc26ajCpauLrvyqywfve+hXBqUnDxoQ0gN7ycqY/LO0H3HG0BojH3uePbRwdUvyHZ00o2jU3Vtz4qH05Hafr49Op8Io0rZvjLu8f9V8sk/94cnCgJ+2g+Lq83YOX7qNuDjGnJS2LfV5cX5+Pu2GtNXFdr2PVKxNjDinb62TjknbdUZ6gjHejBV1jXoEPpwGtDFjzknbjKqTRsUa3ofZI+3Tbqpqn+rb998Nr+ofViuNuXPzQ7GTY8W+8TfbarVr6w+IEX9bOIDckJvLOlfYzfYT9leNP6xuUnxwVhob6hhdvHVL0TCCQzoUOitFs4WsfSdtKIptK4/q9vLQ6Ngh92+yr0/kF+StW5ebrqOWreVFZwVLokNupHfxT7F0baEhraEitm1Li4mSDrmd7ea+gI/UIcOGxtB8Z2FzTJ6ajgp4/rHC6OVcZ+LvBu08KrMulW3A0ulx/pfGxoDaj+9WBtKbY0N6BVvPgQMKIdHzT8eMfDNWPMXHoBg6ZEB+3xumTS+Mptq+IHk9t3FJjP7bDx7tDdnqEJ3rvJlV8+h5fHowsOrd5C9/ouoPdrJNHRci5bbpc0K6TeXBzQduU7/On6zjgKf1AQ0fbbRL+04ah8r1Dy+peTOfD1SSu6BrJ+3bHZCWPkgD9n1cj6ppXj4wpAf2jtyowvx5peYxYmDPKCsOPZr2jhHpFPTz73owf3PmvIrqg4/OJQ0IcSpXT9qCzrVDkob6wLavqK0utht9pGp1/y1p2XrPj7CE/dJhR0TP9Du/8JXFdY6ArlMD2pievSrHAtd10mgX+jB7on3aXR+079bd83NJ15RsVNkePnHPzm1a8hg8IR0ssHFTIT/a3fYT9lONP6w+8PA4vFVajtWxalXR/B55ZbHqL2VpOWnySgpDDQ49rGiS6L8sLxzsFlv1RvVooyaHp0Fwhzi8U9XOonTlG9VtRmpzsl1VGP3JQyPfvn7yqKpLoJNeVrz1VlqstGN5bndVOhyca312c1/AR6t1/xidH8GceGJmPFT6Xsycmp7d7zw0Rp2Sf6XhDu9bmJet3kfRvIndh8SYk3KFxTHt6XerQ/LKKT5OGhSjc41PbqqQue9VXyLceUAMbcBob8ja1tp/+FIr3kxD0bYH7HQyqL5tSt/Oz+e1S9t8FHZp3xnWs959r01PGCTaJz9b4KNW1O9IytP+tXbocVXcUHnVw8YnY/Ks4ikUU7vUDiX9ibT4YXxgW12XXekjAXtIrzi9csTurCfrvongB6nn+75mbeWbtYn2e+L80R5qn6oC4hreiw3vN91Zvft+9/2v3jhpeB1tWfFjaPI/UNNutZ+wn9kHpgHpFt2Orw51lzzzRKwtmiN66+vTY15V6twhjj66cBqqTbcTouo+h+v/FM+/Vn0zw9ixOuY/8afqxqbHcXFk+pM4rMcJ1SOnXpsdz7+TlnO2LIg/zq5Ondsfc2zhgPiAXtGtKq0ui5eeXVCjIVs773fxUuXumxwbx6Q5+m7tC/jI9Tt7aHpCanHcecut8aP83bIj+nxlSIPnDuvVO02PV70ZG7oW5h+r+1E8b+JBMWxIYbv5jzwWk594Nt+x6nxO4cZKEUfH0DPTqUL+8FhMe6Jwmdqu1Av2tq3r340N1YNviqyMh2akc/MV2zgv+V1Oy6ccXfhdPr5HFKZgr3+byTPS4XZ9ezRwm2WxcEUdoc6esEv77hR9Tqo8IfZkTMtPH1LTmsXLYsOuhE0N9sH7XjL9sZibL5VEn+P2ziW2wPtYPDV+kLaJ7UsOis6H1/1on07nMfNnvy0MyOncPfqkl+VPm1EZdhfZXhoLF1dPG1LVT1n6dExL52cttmHp4lhRZ1tepMen0isxGtBWF9m9PhKwZzSPoaOGpFdXLY4brn0wltT3XV8/LyZNSwcUfGAbszIenJKOHu7cK3p+iJF3e6R9SnTrVnnl3uL8zR1r2Ph0zHw6LRfpdcIH7HtWcgy2U/+pqH+1NNlR/h4v9T26F372u9l+wv5qHwirk7at/9DoXFnTt5+IyT/6ccz4/cPx+CM/jp8//GJUfmVbnjA8+n4yfdLutPjcpytD7i3x2sM3xeSHk22S7ab/5L9idtXo50PjtNN7V99s8aghcdpRaTlWx9x7/y2mPJLbbnJMuXdyvLYpfalV7zj9s0ekT9rFSYP6ReXJwq0LJ8e9996f39fjD0+IXz7xZvpKcqh3+hcLd8bN2a19AR+57iPj6jMKxTVzFxTm0G3bPy4b1vDg5pAzR8aofCdtZUz49k0x6fnSqrPmWzcui5m3jIsB35+3U0fvkIEDCqFXcrB6w7Rca1cSI85Ib6yUqJqrctbkuC5/MNs9RqR3xYaszb9jbJx01tjo+8Xr0qlzalrxsxvj0gcWxJp0JMvW5XPiun+YkHb628TorwwqnNTtOCjGpFc4VG2THpTU3KYkLvtq//q3qbGf6+KcCy6J4XfXPMG8R+zivvuMOqdwCe72F+LKf5gYM5duLtRp27sx94Gb4ktjrou+594UD9XxM/ywdtr38jRET/d94V3pQWkD5+cH9qy5j8wshM9tB8UdD06Mx39d92N25U1gF/826WPkCr1izNfT/sKse+L8W+bEko2F7/fWtQti0jXXxjljxsaAa57Mv391P6U0fnR1UT9l+3ux5ImJcf6Y8TH4i1fFhJfe5yRfyaAYXXn/gPdt32va3T7SbmlTffXN/z6Rvue2zfWcVIWPiZNGx02VV5IumhrDk+/6DdMXx4q1uf7Ie7Fh7bJ46oEJMfzLE+IHt1wV59y7LFleRxtT+X3PtzHjo3Kmi6Hf+NsPNZBmj7RPic69eqbf/1woPznmlubWTz7f0lz7dE86Z3RNh5w5KJ0Ssp59X19321TVv9o4Ly4v7tsltpYmP5/vjo1zHiiaXm0320/YX+0TYXW065c0jL2rwuAoeyNee+FPsXDhG7G5cpT1wck6Z/aqDp0Thw3+hzitanh1Rax9Ldkm2W5JaeVUIq3i6C98Nfrk56uu1C56njM6elRe6bqjLFYszG23IFZUzjbSpEOcdM6X4ujK0Dmn89lxzhnVgfL20lfz+1r42uqqq2LadD07hvYtnoBoN/cFfMSax9CRNeem7jzqb+P0XRnd0/rkuPE/zy10WpIO3A++My5OGjQ6jv3c6Djpi9fF5dNKY82M+2JS7TP2HZOOSxqU5xuTk4bG14oDo5L+MSI/VUhq4KAaN16C7KyM+fPTUXvblsX85YVitTZxSMfN8dSdN8WAoel34WsT46F0vZ7fGh/XV/1uN4/TrxgfVx+XK6fbDK69TfPoc/l3Y1x+nZw6ttlpP82jZ69PNXwu6gbbxX13Hh7339i/MLImOSC5/KJL4qRk3WMHj42L7kwOVnLLD+4ZfQ7PFfaw2vv+2sX5etbYd9LO3P3PDZyfH9hzSh+LH+VPVOf6HZVXVdWt5cDhMTo/yrH6Hhudz7su7h5WOIJaMm1iDP9i4ft90pduih/MLbzvob27F64eq6+fMujiGH79nFiS64O0PSr6dK3rZq+V2sSIfx6X9kPqafvq+gy720faHR37xoh0Crc1MyZE33x7d0mc87M6RjLCx0bSb7nq9rj/79KDiG0rY/K/jY/BX8r1Ry6Ovl+6Li69c15hxHXTkujT59B8/2WnNqby+17UxhwyYlzceGZVkrN79kj7lDhpZFxdOYXjoulx0ZdzbWLy+S4qtE+HdKyjnm0HxY25ftL77buudq2+vl3u5/Pl3M/n3Vh41/0xreqebLvZfsJ+at8IqxMtj/lKfO3C4dHjsKI7J+Y0aRYlfb4SF3397OhcPVtIQZNDo8+F343hfbtE+1qbNe1wbJz2tX+MESfXMXt9q14x7JJ/iNNPSBrhWj+hlod9JoZf8o9x+lG1d5b0fT77/8U3vtwvOneotbNmHaLbGd+Ir43qFx1r/8R3c1/AR+yUIYX5ofO6x5izq0c3N9hRI2PKb66N64d1ivY1OhvNo32vQXHHAxOKgrZKSeex6o72Ef2+kHZ6qhwUo86pfn3omQP2QvAGu6NTnD4k/Z50PDlO71EoVjs5/u9PvxuX9S2p8TvbsnPy/bpxQky5oNZNZJp2ijE/nhi/vKJv9Kxxx/nC9+fG+++MX9a+S3u920S0P65vXP/j2+O2AR/yAKo+u7jv9gPGxv88MDbG1Pp5RIuS6HfeuHj6x3XcGX4PqXffbUti6MXfjacfHLvzXf6BvW7hI79Nb5jYgH5H014xqvJs9RO/Tm/I2CZO/96d8fgNQ6Jf55ohTp1tbX39lKbNo+ew0fHLyQ1oC9r2jRt/OSHuGHl01dQkeUlbNvRb4+OX36znBmG71UfaHUm/6cbxcXWNq9CSn83qN9ObOMLHVZvoN25CzJt0yc79gZwWbaLPyEuS7+mEuP6Uyv5L/W1M+6NOjsv+fUI8fVXfPXOye0+0T7nvf1Knndqntp1ixBXj47/OrzGKsUq+n/TzsTG6V5tafdaT4+ofJ+1J13RBLfX2r5I6dxt4bvwy+Twj8vdOS+1u+wn7oU/8NZGWP7SlS5fG9D/vpSOpYtu2xOb3cpdsNI+WrVtF0wZF7hWxdVN5YZRz09bRplWtQLk+O5LtygvbNW3eLlo2cITz9i1l6eVrSR0PSOqYX/oBdnNf0BgNP357dO1az1/uPSjX7nwU+9kbtm58N8q2tYh2HWt2fPh4+ah+h7P6rmzduDmidfI7/n5/CLe/FxvWb0o66dXzrn6g8s35yyN36ftTuc2BH1CfvWGX9p275HZTbGtxQBzS9gNGCe1xhX1H6+T/wtyw7Af29zZ2l2xL2qGN26JFA9va3D0HyiJphw7c/XYo39fJvccutmUfSR8p/7fnvWiZxd8E9iv7ZzuT9kVyxYb2R/JtzEfTz9oj7VPuPZruavuU9pN2pc+a2tU67277CR+Vvdkm7TMjq2to0SraHNAueTQ0qM5pFi3z2ySPhgbVOU2qt9uV8Lhpq3RfDQ2qc3ZzX8C+qWXSycldbiaoZn/Wsm0DDliaNo/2HXex0986N43ILn5/KrfJIpTYpX0Xfh7ZHJyk/xeCatj/tMi1Qw1va1semLRDHyIIysn3dXajLftI+kj5vz0Z/U2ARi/ti+xKfyTfxnw036k90j7l3mOX26fd6LOmdrXOu9t+wv5g3wyrAQAAAADYrwirAQAAAADInLAaAAAAAIDMCasBAAAAAMicsBoAAAAAgMwJqwEAAAAAyJywGgAAAACAzAmrAQAAAADInLAaAAAAAIDMCasBAAAAAMicsBoAAAAAgMwJqwEAAAAAyJywGgAAAACAzAmrAQAAAADInLAaAAAAAIDMCasBAAAAAMicsBoAAAAAgMwJqwEAAAAAyJywGgAAAACAzAmrAQAAAADInLAaAAAAAIDMCasBAAAAAMicsBoAAAAAgMx94q+JtPyhLV26NC0BRHTt2jUt7T3aHfYHvisAe482FtjbtDPAx9Heavv2aFgNAAAAAAC7wzQgAAAAAABkTlgNAAAAAEDmhNUAAAAAAGROWA0AAAAAQOaE1QAAAAAAZE5YDQAAAABA5oTVAAAAAABkTlgNAAAAAEDmhNUAAAAAAGROWA0AAAAAQOaE1QAAAAAAZE5YDQAAAABA5oTVAAAAAABkTlgNAAAAAEDmhNUAAAAAAGROWA0AAAAAQOaE1QAAAAAAZE5YDQAAAABA5oTVAAAAAABkTlgNAAAAAEDmhNUAAAAAAGROWA0AAAAAQOaE1QAAAAAAZE5YDQAAAABA5oTVAAAAAABkTlgNAAAAAEDmhNUAAAAAAGROWA0AAAAAQOaE1QAAAAAAZE5YDQAAAABA5oTVAAAAAABkTlgNAAAAAEDmhNUAAAAAAGROWA0AAAAAQOaE1QAAAAAAZE5YDQAAAABA5oTVAAAAAABkTlgNAAAAAEDmhNUAAAAAAGROWA0AAAAAQOaE1QAAAAAAZE5YDQAAAABA5oTVAAAAAABkTlgNAAAAAEDmhNUAAAAAAGROWA0AAAAAQOaE1QAAAAAAZE5YDQAAAABA5oTVAAAAAABkTlgNAAAAAEDmhNUAAAAAAGROWA0AAAAAQOaE1QAAAAAAZE5YDQAAAABA5oTVAAAAAABkTlgNAAAAAEDmhNUAAAAAAGROWA0AAAAAQOaE1QAAAAAAZE5YDQAAAABA5oTVAAAAAABkTlgNAAAAAEDmhNUAAAAAAGROWA0AAAAAQOaE1QAAAAAAZE5YDQAAAABA5oTVAAAAAABkTlgNAAAAAEDmhNUAAAAAAGROWA0AAAAAQOaE1QAAAAAAZE5YDQAAAABA5oTVAAAAAABkTlgNAAAAAEDmhNUAAAAAAGROWA0AAAAAQOaE1QAAAAAAZE5YDQAAAABA5oTVAAAAAABkTlgNAAAAAEDmhNUAAAAAAGROWA0AAAAAQOaE1QAAAAAAZE5YDQAAAABA5oTVAAAAAABkTlgNAAAAAEDmhNUAAAAAAGROWA0AAAAAQOaE1QAAAAAAZE5YDQAAAABA5oTVAAAAAABkTlgNAAAAAEDmhNUAAAAAAGROWA0AAAAAQOaE1QAAAAAAZE5YDQAAAABA5oTVAAAAAABkTlgNAAAAAEDmhNUAAAAAAGROWA0AAAAAQOaE1QAAAAAAZE5YDQAAAABA5oTVAAAAAABkTlgNAAAAAEDmhNUAAAAAAGROWA0AAAAAQOaE1QAAAAAAZE5YDQAAAABA5oTVAAAAAABkTlgNAAAAAEDmhNUAAAAAAGROWA0AAAAAQOaE1QAAAAAAZE5YDQAAAABA5oTVAAAAAABkTlgNAAAAAEDmhNUAAAAAAGROWA0AAAAAQOaE1QAAAAAAZE5YDQAAAABA5oTVAAAAAABkTlgNAAAAAEDmhNUAAAAAAGROWA0AAAAAQOaE1QAAAAAAZE5YDQAAAABA5oTVAAAAAABkTlgNAAAAAEDmhNUAAAAAAGROWA0AAAAAQOaE1QAAAAAAZE5YDQAAAABA5oTVAAAAAABkTlgNAAAAAEDmhNUAAAAAAGROWA0AAAAAQOaE1QAAAAAAZE5YDQAAAABA5oTVAAAAAABkTlgNAAAAAEDmhNUAAAAAAGROWA0AAAAAQOaE1QAAAAAAZE5YDQAAAABA5oTVAAAAAABkTlgNAAAAAEDmhNUAAAAAAGROWA0AAAAAQOaE1QAAAAAAZE5YDQAAAABA5oTVAAAAAABkTlgNAAAAAEDmhNUAAAAAAGROWA0AAAAAQOaE1QAAAAAAZE5YDQAAAABA5oTVAAAAAABkTlgNAAAAAEDmhNUAAAAAAGROWA0AAAAAQOaE1QAAAAAAZE5YDQAAAABA5oTVAAAAAABkTlgNAAAAAEDmhNUAAAAAAGROWA0AAAAAQOaE1QAAAAAAZE5YDQAAAABA5oTVAAAAAABkTlgNAAAAAEDmhNUAAAAAAGROWA0AAAAAQOaE1QAAAAAAZE5YDQAAAABA5oTVAAAAAABkTlgNAAAAAEDmhNUAAAAAAGROWA0AAAAAQOaE1QAAAAAAZE5YDQAAAABA5oTVAAAAAABkTlgNAAAAAEDmhNUAAAAAAGROWA0AAAAAQOaE1QAAAAAAZE5YDQAAAABA5oTVAAAAAABkTlgNAAAAAEDmhNUAAAAAAGROWA0AAAAAQOaE1QAAAAAAZE5YDQAAAABA5oTVAAAAAABkTlgNAAAAAEDmhNUAAAAAAGROWA0AAAAAQOaE1QAAAAAAZE5YDQAAAABA5oTVAAAAAABkTlgNAAAAAEDmhNUAAAAAAGROWA0AAAAAQOaE1QAAAAAAZE5YDQAAAABA5oTVAAAAAABkTlgNAAAAAEDmhNUAAAAAAGROWA0AAAAAQOaE1QAAAAAAZE5YDQAAAABA5oTVAAAAAABkTlgNAAAAAEDmhNUAAAAAAGROWA0AAAAAQOaE1QAAAAAAZE5YDQAAAABA5oTVAAAAAABkTlgNAAAAAEDmhNUAAAAAAGROWA0AAAAAQOaE1QAAAAAAZE5YDQAAAABA5oTVAAAAAABkTlgNAAAAAEDmhNUAAAAAAGROWA0AAAAAQOaE1QAAAAAAZE5YDQAAAABA5oTVAAAAAABkTlgNAAAAAEDmhNUAAAAAAGROWA0AAAAAQOaE1QAAAAAAZE5YDQAAAABA5oTVAAAAAABkTlgNAAAAAEDmhNUAAAAAAGROWA0AAAAAQOaE1QAAAAAAZE5YDQAAAABA5oTVAAAAAABkTlgNAAAAAEDmhNUAAAAAAGROWA0AAAAAQOaE1QAAAAAAZE5YDQAAAABA5oTVAAAAAABkTlgNAAAAAEDmhNUAAAAAAGROWA0AAAAAQOaE1QAAAAAAZE5YDQAAAABA5oTVAAAAAABkTlgNAAAAAEDmhNUAAAAAAGROWA0AAAAAQOaE1QAAAAAAZE5YDQAAAABA5oTVAAAAAABkTlgNAAAAAEDmhNUAAAAAAGROWA0AAAAAQOaE1QAAAAAAZE5YDQAAAABA5oTVAAAAAABkTlgNAAAAAEDmhNUAAAAAAGROWA0AAAAAQOaE1QAAAAAAZE5YDQAAAABA5oTVAAAAAABkTlgNAAAAAEDmhNUAAAAAAGROWA0AAAAAQOaE1QAAAAAAZE5YDQAAAABA5oTVAAAAAABkTlgNAAAAAEDmhNUAAAAAAGROWA0AAAAAQOaE1QAAAAAAZO4TyeOvhSIAAAAAAGTjE1NnLxVWAwAAAACQKdOAAAAAAACQOWE1AAAAAACZE1YDAAAAAJA5YTUAAAAAAJkTVgMAAAAAkDlhNQAAAAAAmRNWAwAAAACQOWE1AAAAAACZE1YDAAAAAJA5YTUAAAAAAJkTVgMAAAAAkDlhNQAAAAAAmRNWAwAAAACQOWE1AAAAAACZE1YDAAAAAJA5YTUAAAAAAJkTVgMAAAAAkDlhNQAAAAAAmRNWAwAAAACQOWE1AAAAAACZE1YDAAAAAJA5YTUAAAAAAJkTVgMAAAAAkDlhNQAA+4F1MecnN8fNP0gej76WLgMAAPYlwmoAABqtlY/9MK665nv5x8S5G9OldamIirKNsXZd8thckS4DAAD2JcJqAAAapx1LY96cdemTiOUzHovXd6RP9kXvPBm3p8H7A39OlwEAAFWE1QAANEplf3os5pQnhSbNolmu11r+XMxZYNQ0AADsr5qeP+Y749MyAAA0EqviyV/8If5feUTHz18Wow99OZ5bURGr34zoOaBrtE/XqrY5lj/zTLxWlhQPPzGGHF0Rzz41JaY+9Lv4n6efi4V/2RjbDz40OrVrUVi9tm2lsejp/4npv50Sv/uf2TH7paXxbnnzOKRTSbSuNbyj7NU/xLRZL8bCP2+IA4/vvFNddn59VTz78B/ifxctjeWrN0Yubt+2eX28tWxRss7KaNK5axzSsrBtXVY+OyVmPpOs+2bTOLLrwVF71Xpfr1gXrz/7dMyYMS1++9iTMTv/cyiNTdE6Oh58YLQ0bAUAgEZGWA0AQOOz5A/xs9mroiKOjGHnD4reh26L555ZFuXlb0XTTw2M4zqm61UpCqs/sSYW/u5/4pml78T6LduifMvmWPv2slj4zOyYW3pgnNLriGj5icJWOeULHoyb7/hNPPPayli9Prd+8lj/Tixf/HLMnvVybD3q5OjRsVm6dsSmhdPiV0++HitXto5eZ/aKQ9LllXZ+/S8x6/6Z8VwaVOeUr12VvJ57bIpO/frFUW3SF+rw5tOT49E/JetuKYn+nz06WqfLK9X5eukzMek/74sZLy2Lt9ZuLnym/M9hZbz28nPxyieOj9O6tctvDwAAjYXxFAAANDIbY85jz0VuBpA4sV+cemDy7xH9YuDRuQVbYs6c9LX6vLkqVkbbOOa0L8SFo89NHl+I/p8shM1lL06JCY8uzZfzlk2L2372YpTl5sI+8MgYODK3fvIY+ek4NLdJRWnMuvfemFWaX3s3dYmBufc8u2dUZuxHDUz3M/qLcdwez4w3xrOPTotFueC+XdcYPPrSuOa6a+Jfrr40xoz8bBxT0jOGnXZ4YVUAAGhEhNUAADQub86NWctyhVbRv1/vKMTMbePUAT3ypVjwZMx6s1CsW6vo8/fj4tKzTosTTuydPE6Lkd+5Mkb1KrxaNuexmLM+V9oYc37/TOQy3WjXO8aM+2aclewvv02/c+LK674afXLDlHesikdnvlg1KnrXtY1Oufc89oiqUdEdP5Xu58QecWg9M5PsvjfjjcWF0qH9R8SwE7tEx3Zto12HLnFcvxFx6RXp5wIAgEZGWA0AQCNSEYtmz421ueLB/aJvt/zCvGa9Tov++ZB1Xcx5tmh0dG3dhsRZx7dKn6SatI1TzzgtHdn8l3h9WUXyNi/EvHwoHnHU4C/GcbUD3NY9Y2C/toXyywtiUW709T7hiOjyqUJp9WP3xt0PPxnzX30j1pZt+RCBOwAA7H3CagAAGo/1c+Px57fki51O6RHtyzZGWeVj06FxXJ9CCF0+t3J0dB0ObBd1zqxxRJc4Ki2uW78uYkd1dNvxwDSUrqVTl8q0vDTWJpvsG9rGqSO/EEflhqTv2BivP/uHeOAnd8fNN34/rr12fNz+69mx/H3nUQEAgGwIqwEAaDRWPvtMLK8sP3Z3/P9uvLnGY9KcQpCdGx0969lVabmW7em/ta1fG6vTYutWtYZR1zNquqwsP8Y70Spa7TRdR3mUb0uLRcrL91ISXL6ljrm6K6J8a1osVnJajL1hfFx5yRdi8Kk945hPto3W+fC6IlY+//uYeO/swuh1AABoRITVAAA0DttejMefKAxfbnZA2+jYoe5HuzRnXjtndiyqIyyOl/8U8+vIi1e/8FyszJfaxlFHtI04uEsclb7X/OfruGnjjtJ4du5fCuWDu0WndLh2x5IjCoV4I5anL1fZsSpeeWlj+mTPOPSwkkJh3fJYXns0efmL8fKf03JtTZrFod1Oi2Ff/mpc+o/XxL9+f3xcOSR9rxUL4vX8ZN0AANB4CKsBAGgUyp6fG6/kRzgfGWd9+5q45uq6H/9yyaDC3NPlL8bjz9cRDO94LR6488F45e10juaKjfH6rElx14zS/MvR7Yzo3zlX6BoDBx+eXxQLpsTEh1+M1Wn4XVG2NGbdf1fMSG/keMLQ06JToRjRuUscky9siTm//Gk8m+6nYn1um3vj8XfyL+6sReuqGyy+/vLCQjhesSXKP2Ai6Y5duqbb/SWm/uz38fr6/N6i/O0X46E7p6Q/s5pWPnFX3P3oc7Eyv24qWe+9tBjRLtockBYBAKCR+MTU2Uv/mpYBACAbO5bG1H+bFHNyo31PPDduGt07crNW1G1jzPnxzTE1d3PEgwfFd757ZnSK0pj1n7fHo29GtG7XKsrLKqcLqaVd7xjzT+cW3UxxSyz69W0xKZ0nuy7tTv1qXPnlnlVBc87yR74fE6umJKmpXbL/svz+k33dnOyrsDixMZ695+Z4aEn6NNVx8Ni4Zkgamtep7u0qVe3viDPjmm8Pio7bXoyfjn+wzhC70qHJPq98330CAMBHz8hqAAAyV7FgdiGojlbRv9/7BdU5bePUAT0KxXeejMdfrjk0uePnvhFXjuoZnYrT5SbNotMpX4ixNYLqnFZx3HnXxDWjPxvHHFxzr61LesTgb1wR/1IrqM456uwrY+zwHnFo8QvNOsQxp301xo08Nl1QW1Lvr10aZx1ffDPHZJ/rV8f7z8iRbJfU48J+hxfmna7UuiT6jLw0LvxcrdtJtugVZ110ZvTp0jZa1+rtNzv4yBg4+ooYJ6gGAKARMrIaAID9VkX5xijf0SraHfD+8XeVii1RVh7R+oBW0ayBwzp2eR85OyqifFNFNN+F/VSq2JTsr0myvxrJdf3y9atotkufCQAAsiCsBgAAAAAgc8ZWAAAAAACQOWE1AAAAAACZE1YDAAAAAJA5YTUAAAAAAJkTVgMAAAAAkDlhNQAAAAAAmRNWAwAAAACQuU9Mnb30r2kZAAA+fhZPi5sfXpAUesWoq0fEMYWlGXotHv3Bw/FKUjrhy9fEWd0LSwEAYH9nZDUAAB9vFVti7bqNyWNLVKSLslURZfn6bIyyxlEhAAD4SAirAQAAAADInLAaAAAAAIDMmbMaAIDGoWJjrPzzn2L+K6/GojfW5afkaHZIlzix9xkx8JTDo3UdwyzK33wx5j3/Yry84M0oyy1od0Qc071rnHxyvzimpFl+nUoVZW/E83OfTNbPrds6OnbpFf3PHBQnrJkSV93/YrJG7xhz87lxXGH1REWUrVgQ819YEIsWvxFrtyWLWnSIo074TAzs/+nodEBhrWIV7yyNZ5+fG6+8UrR+92PjxJM/E8d1bhs1apT7vC/Mjcef/VO8mVQ+/1lPHRKDe5XGg9f+IuYnq/S56PtxwfGF1XMqSpP3f+HFeH3xq/ltkg8cR/TqFaf+zWlx3ME1P2/OLtUHAAAyJqwGACB7656Ju384LV6vb47mA3vHmHHnxnGt0+exJV5/ZGLcPWdd+ryWJj3iwvEXxgktCk9Xz54YEx5dVcec1M3iqKM7xPJlpUm5OKxeF3PuuT2mLqmnQk3axql/Py5GHd8qXZDs49lJcdfDSwuh+U46xOBvXxHDjkifls6Oibf/PpbX8fbNjj48PrlsVaxMytVhdUXyeW9LPu/G3JM6JJ/jrLEx9rSS9Pku1gcAABqBpueP+c74tAwAANlofVBsXzI7XmtyZJw2bFgMPvOLMbh35zi0RWm8vmJz7Nj6diwqOyw+16ukMI/dG7+LiQ+/HrnBwoee+oUYfd6oGD74tDj1uJLoGO/EpuPPjrN7tMutGeV/fjDuePD12JJ7cuCRMfCLw+L0T/eK3t1ax6rXV8abazfn14s4LPqc2SsOyZdbx0HbX41Zi5vGMf0HxVmDPx9fPKN3dD2sSbLNqti0fVusfG19HNk/Wb9psnrZc/Gr//7fePOvEe2OHRTnX/B3cfaQ06N/765xSIu1sbZD/zi3/xHRPPfW5Qvjgf+aEotyFWrSNo4Z8Pk463N9ovdJXeKA1cti+coNVQHz4Sd/Pk7M589NomPLdTH3+bejpE+y/ucHxReG943jOrWL8hXLYs3WHbH+taXRsk+/OKpNsvqu1AcAABoJI6sBAGgctlVERYtmO01N8frU78fdc7dENOkdY24qjHxeO3ti3PzoqqTUMy686atxQr13YlkVM26dGI+/kxTbJdv/U/Ho7EQuOL7lFzG/PPek1jQgO5L67EjqU7tCS6bE/73nuchtcurXvx+jjk0Krz4YV/0kN5VISQy74jsxuHqA805WPvbDuP3x3IjwVtHnoivjgqLR2bkR4688cFv89MV8tF5rGpCkPtuS+qSjxausnx0T/+33sTwpdjrrivjOaR12qT4AANBYuMEiAACNQxpUV2zaGGVl1Y/mrQsjpGNH4Z+cjp27RCFzXhi/uP2nMWPui/H62xujPDfUuti6JbEoF1Qnjhr8xZpBdU7rnjGwX9v0SS1N0qB625Ya9Slr2jrSGsV7lXU6okscky+Uxoz/visemvVcLFqxLsrKa8/zsS6WvJpOXXL0oDirRlCd0ypO+NxnomP6rKY0qK6oVZ8m1fXJBex5Da4PAAA0HkZWAwDQKJQtmBKTHnouVuZHOdeleOTzllj08ISY9OzOczg3O/jI6D/8vDirV4eId56M22/9Q635n2v584N132Bx/cKY+rNfx5wV9Qe8xe9Z77zYrUuiz7BzYmS/XMBeGrP+8/Z49M1k+SlfjVvO61lYp4aF8cA1ddxgsfyNmPXQg/H7BYWbT9al0/DvxHcGFoZRN6w+AADQeJizGgCA7C2bFrdMmhdrKiLadftsDB/eP049qVf0Th6favJGLHo7N2S6eE7pZnHI8afFGZ89Jjq1axYtW+yI8m1bonzrjthRviGWvzQ/1h/ZP3q2eSOemVO4yeDhJ30+Tjw0v3ENZf9vdsz684akVPT+O5bG1H//acxZs6PmPNe5On0q4i+vluanAameUzrigC6nxuCBJ8anDmwdTVtuj/e2bYutWypiR8XmeGvRc7G41YnRr0vE8meeiddyFTr0xBhSuXGxsqXxv398LdYmxer33xjP3nd7TH11S+xoVhJ9vjAshp56YqE+J3WMd19+I9Yna7Xv3i/6HXVAboMG1qewLgAANAamAQEAIHPLX3qxcFPBDqfFmEtGRP8Te8cJ6eO4TvWP/23WrkucMHBEjPr7sXHNP4+PW/7l3OiTX31LvPzqG8n7dYmj0s3nP1+YZ7qGHaXx7Ny/pE+KvLEg5ucr1DYG//0346x+1fU54dgj6h+R3KIkjul3Zoy64Jtx5dXfi5u+PzaGHVF4aeWfc6F5SRzRJZ364+U/pXNl17T6T3Pj9bRcpWxBvLCkUDzh3LFxwcBPV9fnxC71TBuS+MD6AABA4yGsBgAgc81apncx3LI21hUHuJsWxow/lqZPimx7MR74r1/ErFdXRfE0zBVF81q3a9cu6e12jb79OhQWLJgSEx9+MVanG1SULY1Z998VM3JTctTWrHkaSFfE2vWFmx3m7dgYrzw+Oz+tSE2r4vF77opH//RGlBXPm11Un2jbLj+39DGfSeek3vFaPHDng/HK21sKU3VUbIzXZ02Ku2bU8XmTn0/l7Nbr1qZzXudVxOonnshPGVJTw+sDAACNhTmrAQDI3juz4/Yf/j5W5sLUZq3i0E91ifYb3oyVpRsLo6HzIWv1nNIrH/th3P54cWhbS7MeceF1F8YJucR5R2nMuntiPLpsp9mbC3LDN2q9f+7GhLP+6/Z4dEWu3Cxaf/Lw6NZ+SyxfURplW5NFaehbOad0xcs/jWsnv1ZYWJcmHWLwt66IYZ0LT+udTzqnqj7Fc1ZXxKKHb45JzxaC89YHJvVJ3uvNZaWxdlPyLuk2lXNW72p9AACgMTBnNQAA2WvTJXp3bxJrlr4Rqzdti01r34m1m3ZE+56fjzED28W8hW8nK1XPKd3+sE/FgTveijXvbI5N76XJbk6TZtGpz9C4cMyI6NEmXfaJA+KoUz4TPVqujuUr3olctpuXW/ez58e4QU1i1ks13z8i2ebEY6LlmqWxtHRzbNu0IVav3Rw7DuwRwy8eGAfMWxRvJWtVzind5OAucWSr9bF29bpYv7WoPtEsOnbvG+eO+Vr0P6z6osbcfNL9j0k+7/Lk826uXr9150/HV791RjSZ/XKN98+l0Ycce2Icvun1eO3NzVG+ZWOszgX5zQ6O/heMip6lL8aSsuo5q3e1PgAA0BgYWQ0AQONSsSXKyiNaH9AqmjUkT91REeWbtkRFs1bRrnU6ncj72Za8/3vNot0BDVg3L3n/si0RLdtG6xbpovdVWL+iSVKfhuwjX/+KaN7Qz5uo2LQxynPv35DPu6v1AQCAjAirAQAAAADInGv/AAAAAADInLAaAAAAAIDMCasBAAAAAMicsBoAAAAAgMwJqwEAAAAAyJywGgAAAACAzAmrAQAAAADI3Cemzl7617QMAAAfP4unxc0PL0gKvWLU1SPimMLSDL0Wj/7g4XglKZ3w5WvirO6FpQAAsL8zshoAgI+3ii2xdt3G5LElKtJF2aqIsnx9NkZZ46gQAAB8JITVAAAAAABkTlgNAAAAAEDmzFkNAEDjULExVv75TzH/lVdj0Rvr8lNyNDukS5zY+4wYeMrh0bqOYRblb74Y855/MV5e8GaU5Ra0OyKO6d41Tj65XxxT0iy/TqWKsjfi+blPJuvn1m0dHbv0iv5nDooT1kyJq+5/MVmjd4y5+dw4rrB6oiLKViyI+S8siEWL34i125JFLTrEUSd8Jgb2/3R0OqCwVrGKd5bGs8/PjVdeKVq/+7Fx4smfieM6t40aNcp93hfmxuPP/ineTCqf/6ynDonBvUrjwWt/EfOTVfpc9P244PjC6jkVpcn7v/BivL741fw2yQeOI3r1ilP/5rQ47uCanzdnl+oDAAAZE1YDAJC9dc/E3T+cFq/XN0fzgb1jzLhz47jW6fPYEq8/MjHunrMufV5Lkx5x4fgL44QWhaerZ0+MCY+uqmNO6mZx1NEdYvmy0qRcHFavizn33B5Tl9RToSZt49S/Hxejjm+VLkj28eykuOvhpYXQfCcdYvC3r4hhR6RPS2fHxNt/H8vrePtmRx8en1y2KlYm5eqwuiL5vLcln3dj7kkdks9x1tgYe1pJ+nwX6wMAAI1A0/PHfGd8WgYAgGy0Pii2L5kdrzU5Mk4bNiwGn/nFGNy7cxzaojReX7E5dmx9OxaVHRaf61VSmMfujd/FxIdfj9xg4UNP/UKMPm9UDB98Wpx6XEl0jHdi0/Fnx9k92uXWjPI/Pxh3PPh6bMk9OfDIGPjFYXH6p3tF726tY9XrK+PNtZvz60UcFn3O7BWH5Mut46Dtr8asxU3jmP6D4qzBn48vntE7uh7WJNlmVWzavi1WvrY+juyfrN80Wb3sufjVf/9vvPnXiHbHDorzL/i7OHvI6dG/d9c4pMXaWNuhf5zb/4honnvr8oXxwH9NiUW5CjVpG8cM+Hyc9bk+0fukLnHA6mWxfOWGqoD58JM/Hyfm8+cm0bHlupj7/NtR0idZ//OD4gvD+8ZxndpF+YplsWbrjlj/2tJo2adfHNUmWX1X6gMAAI2EkdUAADQO2yqiokWznaameH3q9+PuuVsimvSOMTcVRj6vnT0xbn50VVLqGRfe9NU4od47sayKGbdOjMffSYrtku3/qXh0diIXHN/yi5hfnntSaxqQHUl9diT1qV2hJVPi/97zXOQ2OfXr349RxyaFVx+Mq36Sm0qkJIZd8Z0YXD3AeScrH/th3P54bkR4q+hz0ZVxQdHo7NyI8VceuC1++mI+Wq81DUhSn21JfdLR4lXWz46J//b7WJ4UO511RXzntA67VB8AAGgs3GARAIDGIQ2qKzZtjLKy6kfz1oUR0rGj8E9Ox85dopA5L4xf3P7TmDH3xXj97Y1RnhtqXWzdkliUC6oTRw3+Ys2gOqd1zxjYr236pJYmaVC9bUuN+pQ1bR1pjeK9yjod0SWOyRdKY8Z/3xUPzXouFq1YF2Xltef5WBdLXk2nLjl6UJxVI6jOaRUnfO4z0TF9VlMaVFfUqk+T6vrkAva8BtcHAAAaDyOrAQBoFMoWTIlJDz0XK/OjnOtSPPJ5Syx6eEJMenbnOZybHXxk9B9+XpzVq0PEO0/G7bf+odb8z7X8+cG6b7C4fmFM/dmvY86K+gPe4vesd17s1iXRZ9g5MbJfLmAvjVn/eXs8+may/JSvxi3n9SysU8PCeOCaOm6wWP5GzHrowfj9gsLNJ+vSafh34jsDC8OoG1YfAABoPMxZDQBA9pZNi1smzYs1FRHtun02hg/vH6ee1Ct6J49PNXkjFr2dGzJdPKd0szjk+NPijM8eE53aNYuWLXZE+bYtUb51R+wo3xDLX5of64/sHz3bvBHPzCncZPDwkz4fJx6a37iGsv83O2b9eUNSKnr/HUtj6r//NOas2VFznutcnT4V8ZdXS/PTgFTPKR1xQJdTY/DAE+NTB7aOpi23x3vbtsXWLRWxo2JzvLXouVjc6sTo1yVi+TPPxGu5Ch16Ygyp3LhY2dL43z++FmuTYvX7b4xn77s9pr66JXY0K4k+XxgWQ089sVCfkzrGuy+/EeuTtdp37xf9jjogt0ED61NYFwAAGgPTgAAAkLnlL71YuKlgh9NizCUjov+JveOE9HFcp/rH/zZr1yVOGDgiRv392Ljmn8fHLf9ybvTJr74lXn71jeT9usRR6ebzny/MM13DjtJ4du5f0idF3lgQ8/MVahuD//6bcVa/6vqccOwR9Y9IblESx/Q7M0Zd8M248urvxU3fHxvDjii8tPLPudC8JI7okk798fKf0rmya1r9p7nxelquUrYgXlhSKJ5w7ti4YOCnq+tzYpd6pg1JfGB9AACg8RBWAwCQuWYt07sYblkb64oD3E0LY8YfS9MnRba9GA/81y9i1quronga5oqiea3btWuX9Ha7Rt9+HQoLFkyJiQ+/GKvTDSrKlsas+++KGbkpOWpr1jwNpCti7frCzQ7zdmyMVx6fnZ9WpKZV8fg9d8Wjf3ojyornzS6qT7Rtl59b+pjPpHNS73gtHrjzwXjl7S2FqToqNsbrsybFXTPq+LzJz6dydut1a9M5r/MqYvUTT+SnDKmp4fUBAIDGwpzVAABk753ZcfsPfx8rc2Fqs1Zx6Ke6RPsNb8bK0o2F0dD5kLV6TumVj/0wbn+8OLStpVmPuPC6C+OEXOK8ozRm3T0xHl220+zNBbnhG7XeP3djwln/dXs8uiJXbhatP3l4dGu/JZavKI2yrcmiNPStnFO64uWfxrWTXyssrEuTDjH4W1fEsM6Fp/XOJ51TVZ/iOasrYtHDN8ekZwvBeesDk/ok7/XmstJYuyl5l3Sbyjmrd7U+AADQGJizGgCA7LXpEr27N4k1S9+I1Zu2xaa178TaTTuifc/Px5iB7WLewreTlarnlG5/2KfiwB1vxZp3Nsem99JkN6dJs+jUZ2hcOGZE9GiTLvvEAXHUKZ+JHi1Xx/IV70Qu283LrfvZ82PcoCYx66Wa7x+RbHPiMdFyzdJYWro5tm3aEKvXbo4dB/aI4RcPjAPmLYq3krUq55RucnCXOLLV+li7el2s31pUn2gWHbv3jXPHfC36H1Z9UWNuPun+xySfd3nyeTdXr9+686fjq986I5rMfrnG++fS6EOOPTEO3/R6vPbm5ijfsjFW54L8ZgdH/wtGRc/SF2NJWfWc1btaHwAAaAyMrAYAoHGp2BJl5RGtD2gVzRqSp+6oiPJNW6KiWato1zqdTuT9bEve/71m0e6ABqybl7x/2ZaIlm2jdYt00fsqrF/RJKlPQ/aRr39FNG/o501UbNoY5bn3b8jn3dX6AABARoTVAAAAAABkzrV/AAAAAABkTlgNAAAAAEDmhNUAAAAAAGROWA0AAAAAQOaE1QAAAAAAZE5YDQAAAABA5oTVAAAAAABkTlgNAAAAAEDmhNUAAAAAAGROWA0AAAAAQOaE1QAAAAAAZE5YDQAAAABA5oTVAAAAAABkTlgNAAAAAEDmhNUAAAAAAGROWA0AAAAAQOaE1QAAAAAAZE5YDQAAAABA5oTVAAAAAABkTlgNAAAAAECmtm0tF1YDAAAAAJCdXFC9avmrwmoAAAAAALKxdvWKeP2luVFeviWafupT3cZv27YlmrdoGS1atkpXAQAAAACAPeu9bVti4/q18e6aVbFm1bJ4Z/XKaNGmQzRr2Tr+/2kVxEuAms+jAAAAAElFTkSuQmCC;" vertex="1" parent="1">
          <mxGeometry x="410" y="230" width="1451" height="933" as="geometry" />
        </mxCell>
        <mxCell id="eiNH-cdMeC_MbH61KrFe-2" value="" style="rounded=0;whiteSpace=wrap;html=1;fillColor=none;strokeColor=#CC0000;strokeWidth=3;" vertex="1" parent="1">
          <mxGeometry x="350" y="350" width="1540" height="150" as="geometry" />
        </mxCell>
        <mxCell id="eiNH-cdMeC_MbH61KrFe-4" value="" style="rounded=0;whiteSpace=wrap;html=1;fillColor=none;strokeColor=#CC0000;strokeWidth=3;" vertex="1" parent="1">
          <mxGeometry x="1700" y="380" width="320" height="90" as="geometry" />
        </mxCell>
        <mxCell id="eiNH-cdMeC_MbH61KrFe-5" value="" style="rounded=0;whiteSpace=wrap;html=1;fillColor=none;strokeColor=#CC0000;strokeWidth=3;" vertex="1" parent="1">
          <mxGeometry x="365.5" y="1030" width="1540" height="150" as="geometry" />
        </mxCell>
        <mxCell id="eiNH-cdMeC_MbH61KrFe-6" value="" style="rounded=0;whiteSpace=wrap;html=1;fillColor=none;strokeColor=#CC0000;strokeWidth=3;" vertex="1" parent="1">
          <mxGeometry x="1140" y="390" width="140" height="150" as="geometry" />
        </mxCell>
        <mxCell id="eiNH-cdMeC_MbH61KrFe-7" value="" style="rounded=0;whiteSpace=wrap;html=1;fillColor=none;strokeColor=#CC0000;strokeWidth=3;" vertex="1" parent="1">
          <mxGeometry x="330" y="585" width="1620" height="245" as="geometry" />
        </mxCell>
      </root>
    </mxGraphModel>
  </diagram>
</mxfile>
